<svg xmlns="http://www.w3.org/2000/svg" xmlns:xlink="http://www.w3.org/1999/xlink" version="1.1" width="187.70856pt" height="131.19637pt" viewBox="0 0 187.70856 131.19637">
<defs>
<clipPath id="clip_0">
<path transform="matrix(1,0,0,-1,0,131.19637)" d="M27.075 17.886675H116.23981V121.56667H27.075Z"/>
</clipPath>
<clipPath id="clip_1">
<path transform="matrix(1,0,0,-1,0,131.19637)" d="M27.075 17.886675H116.23981V121.56667H27.075Z"/>
</clipPath>
<clipPath id="clip_2">
<path transform="matrix(1,0,0,-1,0,131.19637)" d="M27.075 17.886675H116.23981V121.56667H27.075Z"/>
</clipPath>
<clipPath id="clip_3">
<path transform="matrix(1,0,0,-1,0,131.19637)" d="M27.075 17.886675H116.23981V121.56667H27.075Z"/>
</clipPath>
<clipPath id="clip_4">
<path transform="matrix(1,0,0,-1,0,131.19637)" d="M27.075 17.886675H116.23981V121.56667H27.075Z"/>
</clipPath>
<clipPath id="clip_5">
<path transform="matrix(1,0,0,-1,0,131.19637)" d="M27.075 17.886675H116.23981V121.56667H27.075Z"/>
</clipPath>
<clipPath id="clip_6">
<path transform="matrix(1,0,0,-1,0,131.19637)" d="M27.075 17.886675H116.23981V121.56667H27.075Z"/>
</clipPath>
<clipPath id="clip_7">
<path transform="matrix(1,0,0,-1,0,131.19637)" d="M27.075 17.886675H116.23981V121.56667H27.075Z"/>
</clipPath>
<clipPath id="clip_8">
<path transform="matrix(1,0,0,-1,0,131.19637)" d="M27.075 17.886675H116.23981V121.56667H27.075Z"/>
</clipPath>
<clipPath id="clip_9">
<path transform="matrix(1,0,0,-1,0,131.19637)" d="M27.075 17.886675H116.23981V121.56667H27.075Z"/>
</clipPath>
<clipPath id="clip_10">
<path transform="matrix(1,0,0,-1,0,131.19637)" d="M27.075 17.886675H116.23981V121.56667H27.075Z"/>
</clipPath>
<clipPath id="clip_11">
<path transform="matrix(1,0,0,-1,0,131.19637)" d="M27.075 17.886675H116.23981V121.56667H27.075Z"/>
</clipPath>
<clipPath id="clip_12">
<path transform="matrix(1,0,0,-1,0,131.19637)" d="M27.075 17.886675H116.23981V121.56667H27.075Z"/>
</clipPath>
<clipPath id="clip_13">
<path transform="matrix(1,0,0,-1,0,131.19637)" d="M27.075 17.886675H116.23981V121.56667H27.075Z"/>
</clipPath>
<clipPath id="clip_14">
<path transform="matrix(1,0,0,-1,0,131.19637)" d="M27.075 17.886675H116.23981V121.56667H27.075Z"/>
</clipPath>
<clipPath id="clip_15">
<path transform="matrix(1,0,0,-1,0,131.19637)" d="M27.075 17.886675H116.23981V121.56667H27.075Z"/>
</clipPath>
<clipPath id="clip_16">
<path transform="matrix(1,0,0,-1,0,131.19637)" d="M27.075 17.886675H116.23981V121.56667H27.075Z"/>
</clipPath>
<clipPath id="clip_17">
<path transform="matrix(1,0,0,-1,0,131.19637)" d="M27.075 17.886675H116.23981V121.56667H27.075Z"/>
</clipPath>
<clipPath id="clip_18">
<path transform="matrix(1,0,0,-1,0,131.19637)" d="M27.075 17.886675H116.23981V121.56667H27.075Z"/>
</clipPath>
<clipPath id="clip_19">
<path transform="matrix(1,0,0,-1,0,131.19637)" d="M27.075 17.886675H116.23981V121.56667H27.075Z"/>
</clipPath>
<clipPath id="clip_20">
<path transform="matrix(1,0,0,-1,0,131.19637)" d="M27.075 17.886675H116.23981V121.56667H27.075Z"/>
</clipPath>
<path id="font_21_9" d="M.036132814 .32714845C.036132814 .40266929 .047526044 .46769206 .0703125 .5222168 .09309896 .5767415 .1233724 .6173503 .16113281 .64404299 .19042969 .66520187 .22070313 .67578127 .25195313 .67578127 .30273438 .67578127 .34830729 .64990237 .38867188 .59814456 .4391276 .5340169 .46435548 .44710288 .46435548 .33740235 .46435548 .26057945 .45328776 .1953125 .43115235 .14160156 .40901695 .087890628 .38077799 .048909505 .34643556 .024658204 .3120931 .00040690104 .27897135-.01171875 .24707031-.01171875 .18391927-.01171875 .13134766 .025553385 .08935547 .100097659 .0538737 .16292317 .036132814 .23860677 .036132814 .32714845M.13183594 .3152008C.13183594 .22412618 .1430664 .14980062 .16552735 .09222412 .18408203 .043762208 .2117513 .01953125 .24853516 .01953125 .26611329 .01953125 .28434245 .027420044 .30322267 .04319763 .32210288 .05897522 .33642579 .08540344 .3461914 .1224823 .36116538 .17842102 .36865235 .2572988 .36865235 .3591156 .36865235 .4345754 .36083985 .49751283 .34521485 .54792788 .3334961 .5853322 .31835938 .61184188 .2998047 .62745669 .28645835 .63818868 .27034507 .6435547 .25146485 .6435547 .22932942 .6435547 .20963542 .6336365 .19238281 .61380007 .16894531 .5868022 .1529948 .54435226 .14453125 .4864502 .1360677 .42855836 .13183594 .37147523 .13183594 .3152008Z"/>
<path id="font_21_11" d="M.4584961 .12890625 .41210938 0H.021484375V.018432618C.13639324 .12313843 .21728516 .20865886 .26416017 .2749939 .31103517 .3413391 .33447267 .40201823 .33447267 .45703126 .33447267 .498881 .3216146 .5332692 .29589845 .5601959 .27018229 .5871226 .23942058 .60058596 .20361328 .60058596 .1710612 .60058596 .1418457 .5911458 .1159668 .5722656 .09008789 .55339559 .07096354 .5257263 .05859375 .4892578H.040527345C.048665365 .5493266 .06958008 .59542849 .103271488 .6275635 .13696289 .6597087 .17903646 .67578127 .22949219 .67578127 .28320313 .67578127 .3280436 .6585286 .36401368 .62402346 .39998374 .58951827 .41796876 .5488281 .41796876 .5019531 .41796876 .46842448 .41015626 .43489585 .39453126 .4013672 .37044273 .3486328 .33138023 .292806 .27734376 .23388672 .19628906 .14552816 .14567058 .09263102 .12548828 .07519531H.29833985C.3334961 .07519531 .3581543 .0764974 .37231446 .07910156 .3864746 .08170573 .3992513 .086995448 .41064454 .0949707 .42203776 .10294596 .43196617 .11425781 .4404297 .12890625H.4584961Z"/>
<path id="font_21_14" d="M.43408204 .6621094 .3959961 .57910159H.19677735L.15332031 .491333C.23958333 .47860719 .30794273 .44647218 .35839845 .39492799 .40169273 .35056559 .42333985 .29837037 .42333985 .23834229 .42333985 .20343018 .41625978 .1711324 .4020996 .14144898 .38793946 .11176554 .3701172 .08648173 .3486328 .065597537 .32714845 .04472351 .30322267 .027923584 .27685548 .015197754 .23942058-.002746582 .20100911-.01171875 .1616211-.01171875 .121907558-.01171875 .09301758-.004964193 .07495117 .008544922 .056884767 .022054038 .047851564 .036946615 .047851564 .053222658 .047851564 .06233724 .05159505 .07039388 .05908203 .07739258 .06656901 .08439127 .07600912 .087890628 .087402347 .087890628 .09586588 .087890628 .103271488 .08658854 .10961914 .083984378 .1159668 .08138021 .12679036 .07470703 .14208985 .063964847 .1665039 .04703776 .19124349 .038411458 .2163086 .038085939 .25439454 .038085939 .2878418 .052525838 .3166504 .08140564 .34545899 .110295619 .35986329 .14546712 .35986329 .18692017 .35986329 .22706096 .34700523 .2645111 .32128907 .29927064 .2955729 .3340403 .26009117 .36089073 .21484375 .37982179 .17936199 .39450074 .13102214 .40298463 .06982422 .40527345L.19677735 .6621094H.43408204Z"/>
<path id="font_21_15" d="M.10058594 .6621094H.4555664V.6437073L.23486328-.013671875H.18017578L.3779297 .58203127H.19580078C.15901692 .58203127 .1328125 .5776367 .1171875 .56884768 .08984375 .5538737 .067871097 .5307617 .05126953 .49951173L.037109376 .5048828 .10058594 .6621094Z"/>
<path id="font_21_10" d="M.1171875 .59765627 .2783203 .67578127H.2944336V.1171875C.2944336 .080078128 .29597984 .056966146 .29907228 .047851564 .3021647 .03873698 .30859376 .03173828 .31835938 .026855469 .328125 .021972657 .34798179 .019205729 .3779297 .018554688V0H.12890625V.018554688C.16015625 .019205729 .18033855 .021891276 .18945313 .026611329 .1985677 .03133138 .20491536 .037679037 .2084961 .045654298 .21207683 .05362956 .21386719 .07747396 .21386719 .1171875V.47460938C.21386719 .5225728 .21223958 .5533549 .20898438 .56695559 .20670574 .57733157 .20255535 .58496096 .1965332 .58984377 .19051107 .59472659 .18326824 .59716799 .17480469 .59716799 .16276042 .59716799 .1459961 .5921224 .12451172 .58203127L.1171875 .59765627Z"/>
<path id="font_21_18" d="M.20458985 .62597659V.36621095H.3251953C.3528646 .36621095 .37312828 .37227885 .38598634 .38441468 .3988444 .39656068 .4073893 .4207662 .4116211 .45703126H.4296875V.23242188H.4116211C.41129557 .25813804 .40795899 .27701823 .40161134 .2890625 .39526368 .30110679 .3864746 .31013999 .37524415 .3161621 .36401368 .32218424 .34733073 .3251953 .3251953 .3251953H.20458985V.1171875C.20458985 .08382162 .20670574 .06179301 .2109375 .051101686 .2141927 .043004354 .22102864 .03604126 .23144531 .030212403 .24576824 .022440592 .2607422 .018554688 .2763672 .018554688H.30029298V0H.016113282V.018554688H.03955078C.06689453 .018554688 .086751308 .026489258 .099121097 .0423584 .106933597 .0527242 .110839847 .07766724 .110839847 .1171875V.5449219C.110839847 .5782878 .10872396 .60031637 .10449219 .6110077 .10123698 .61910507 .094563808 .6260681 .084472659 .631897 .07047526 .63966879 .0555013 .6435547 .03955078 .6435547H.016113282V.6621094H.50878909L.5151367 .51660159H.49804688C.48958335 .54752609 .47973634 .57023116 .46850587 .5847168 .4572754 .59920248 .44344078 .6097005 .42700196 .61621096 .41056315 .6227214 .38509117 .62597659 .35058595 .62597659H.20458985Z"/>
<path id="font_21_29" d="M.10644531 .2783203C.10611979 .21221924 .12223307 .16037496 .15478516 .122787479 .18733724 .08519999 .22558594 .06640625 .26953126 .06640625 .29882813 .06640625 .32430015 .0744985 .34594728 .09068298 .3675944 .10686747 .3857422 .13458252 .40039063 .17382813L.41552735 .16401673C.4086914 .1191864 .38883464 .07836405 .35595704 .041549684 .32307945 .004735311 .28190104-.013671875 .23242188-.013671875 .17871094-.013671875 .13273113 .007197062 .09448242 .048934938 .056233724 .09068298 .037109376 .14680481 .037109376 .21730042 .037109376 .29363505 .056722005 .35315959 .095947269 .39587403 .13517253 .43859864 .18440755 .45996095 .24365235 .45996095 .29378257 .45996095 .33496095 .44348146 .3671875 .41052247 .39941407 .37757365 .41552735 .33350627 .41552735 .2783203H.10644531M.10644531 .30664063H.31347657C.31184898 .3350525 .308431 .35506694 .30322267 .36668397 .29508464 .38477073 .28295899 .39897666 .2668457 .40930177 .25073243 .41963706 .23388672 .4248047 .2163086 .4248047 .18929036 .4248047 .16512044 .4143931 .14379883 .39356996 .12247721 .3727468 .11002604 .34377036 .10644531 .30664063Z"/>
<path id="font_21_28" d="M.34716798 .05026245C.32535807 .027486166 .30403648 .01113383 .28320313 .0012054443 .26236979-.008712769 .23990886-.013671875 .21582031-.013671875 .16699219-.013671875 .12434896 .006708781 .087890628 .047470094 .051432294 .08824158 .033203126 .14063008 .033203126 .20463562 .033203126 .26863099 .053385419 .32718406 .09375 .3802948 .13411458 .43340556 .18603516 .45996095 .24951172 .45996095 .28889976 .45996095 .3214518 .44743348 .34716798 .42237855V.5058594C.34716798 .5567525 .34594728 .588033 .34350587 .5997009 .34106446 .61136886 .3372396 .61931356 .33203126 .62353518 .3268229 .6277669 .3203125 .6298828 .3125 .6298828 .30403648 .6298828 .292806 .6272786 .2788086 .6220703L.27246095 .63964846 .40576173 .69433596H.42773438V.17675781C.42773438 .124562587 .42895509 .0927124 .43139649 .081207279 .4338379 .06970215 .43774415 .06167094 .44311524 .057113649 .44848634 .05256653 .4547526 .05029297 .46191407 .05029297 .47070313 .05029297 .48242188 .053059896 .4970703 .05859375L.5024414 .041015626 .3696289-.013671875H.34716798V.05026245M.34716798 .084365848V.31425477C.34521485 .33633933 .33935548 .35647074 .32958985 .37464906 .31982423 .39283753 .30688478 .40655519 .29077149 .415802 .2746582 .425059 .2589518 .4296875 .24365235 .4296875 .21500652 .4296875 .18945313 .41685996 .16699219 .39120484 .1373698 .35744224 .122558597 .3080902 .122558597 .2431488 .122558597 .17755635 .13688152 .12730408 .16552735 .09239197 .19417317 .057490034 .22607422 .040039064 .26123048 .040039064 .29085288 .040039064 .3194987 .054814657 .34716798 .084365848Z"/>
<path id="font_21_26" d="M.1538086 .36875917C.19710286 .42956034 .24381511 .45996095 .2939453 .45996095 .33984376 .45996095 .3798828 .44036866 .4140625 .40118409 .4482422 .3619995 .46533204 .3084259 .46533204 .24046326 .46533204 .16111756 .43896485 .097218837 .38623048 .04876709 .34098307 .0071411135 .29052735-.013671875 .23486328-.013671875 .20882161-.013671875 .18237305-.008921306 .15551758 .000579834 .12866211 .010080974 .10123698 .024337769 .07324219 .04335022V.5058594C.07324219 .5566406 .072021488 .5878906 .06958008 .5996094 .06713867 .6113281 .063313808 .6193034 .05810547 .62353518 .052897138 .6277669 .04638672 .6298828 .03857422 .6298828 .029459635 .6298828 .018066407 .6272786 .0043945314 .6220703L-.0024414063 .63964846 .13183594 .69433596H.1538086V.36875917M.1538086 .337677V.071517948C.17041016 .055323285 .18758138 .043095907 .20532227 .034835817 .22306316 .026585898 .24121094 .022460938 .25976563 .022460938 .28938804 .022460938 .31697593 .038650514 .3425293 .07102966 .36808268 .10340881 .38085938 .15052288 .38085938 .21237183 .38085938 .2693583 .36808268 .31315104 .3425293 .34375 .31697593 .37434898 .2879232 .38964845 .2553711 .38964845 .23811849 .38964845 .22086589 .38527934 .20361328 .37654115 .19059246 .37006126 .17399089 .35710655 .1538086 .337677Z"/>
<path id="font_21_25" d="M.28466798 .063934329C.23876953 .028462729 .20996094 .007965088 .19824219 .0024414063 .18066406-.0056966149 .16194661-.009765625 .14208985-.009765625 .11116537-.009765625 .08569336 .00081380209 .06567383 .021972657 .045654298 .04313151 .03564453 .07096354 .03564453 .10546875 .03564453 .12727864 .040527345 .14615886 .05029297 .16210938 .06363932 .1842448 .08683268 .20507813 .11987305 .22460938 .1529134 .24414063 .20784505 .26790367 .28466798 .29589845V.31341554C.28466798 .35784913 .2775879 .38833619 .26342774 .4048767 .24926758 .42141725 .22867839 .4296875 .20166016 .4296875 .18115235 .4296875 .1648763 .42415367 .15283203 .41308595 .14046224 .40201823 .13427735 .3893229 .13427735 .375L.1352539 .3466797C.1352539 .33170573 .13142903 .32014976 .1237793 .31201173 .116129558 .3038737 .10611979 .2998047 .09375 .2998047 .08170573 .2998047 .07185873 .30404664 .064208988 .31253053 .056559247 .32102458 .052734376 .33261619 .052734376 .3473053 .052734376 .37539164 .06705729 .40118919 .095703128 .42469789 .12434896 .44820658 .16455078 .45996095 .2163086 .45996095 .25602214 .45996095 .28857423 .45329795 .31396485 .43997193 .33317057 .42989097 .34733073 .41411845 .3564453 .39265443 .3623047 .37867738 .36523438 .35006715 .36523438 .30682374V.15515137C.36523438 .112559 .3660482 .08646647 .36767579 .07687378 .36930339 .06728109 .37198893 .060857137 .37573243 .05760193 .37947593 .05435689 .38378907 .052734376 .38867188 .052734376 .39388023 .052734376 .3984375 .0538737 .40234376 .056152345 .4091797 .060384115 .42236329 .072265628 .44189454 .091796878V.064453128C.4054362 .015625 .37060548-.0087890629 .33740235-.0087890629 .3214518-.0087890629 .3087565-.0032958985 .2993164 .0076904299 .2898763 .01868693 .2849935 .037434896 .28466798 .063934329M.28466798 .09559631V.265625C.23551433 .24613445 .20377605 .23233032 .18945313 .22421265 .16373699 .20992024 .14534505 .1949768 .13427735 .17938233 .12320963 .16379802 .11767578 .14674886 .11767578 .12823487 .11767578 .10484823 .12467448 .08543905 .13867188 .070007327 .15266927 .054585775 .16878255 .046875 .18701172 .046875 .2117513 .046875 .24430339 .06311544 .28466798 .09559631Z"/>
<path id="font_21_27" d="M.4111328 .16992188C.39908854 .1110026 .37548829 .06567383 .34033204 .033935548 .30517579 .0021972657 .26627604-.013671875 .22363281-.013671875 .17285156-.013671875 .12858074 .007624308 .09082031 .050216676 .053059896 .092819217 .034179689 .15038045 .034179689 .22290039 .034179689 .2931417 .055094404 .35020957 .09692383 .394104 .13875325 .43800865 .18896485 .45996095 .2475586 .45996095 .2915039 .45996095 .32763673 .44828288 .35595704 .42492677 .38427735 .4015808 .3984375 .3773346 .3984375 .3521881 .3984375 .33977763 .39444987 .32973228 .3864746 .322052 .37849937 .31438194 .36735026 .31054688 .35302735 .31054688 .33382163 .31054688 .31933595 .31678263 .3095703 .32925416 .30403648 .33615113 .30037437 .34928385 .29858399 .36865235 .2967936 .38802085 .2902018 .40279136 .2788086 .41296388 .26741538 .42281089 .2516276 .42773438 .23144531 .42773438 .19889324 .42773438 .1726888 .4156901 .15283203 .39160157 .12646485 .35970054 .11328125 .31754557 .11328125 .26513673 .11328125 .2117513 .12638347 .16463216 .15258789 .1237793 .17879232 .08292643 .2141927 .0625 .25878907 .0625 .2906901 .0625 .31933595 .073404949 .34472657 .095214847 .36263023 .110188808 .38004557 .1373698 .39697267 .17675781L.4111328 .16992188Z"/>
<path id="font_21_31" d="M.16357422 .69433596V.24946594L.27734376 .35328675C.30143229 .37535096 .3154297 .38930259 .31933595 .3951416 .3219401 .3990377 .3232422 .40292869 .3232422 .40681459 .3232422 .41330467 .32055665 .41889955 .31518556 .42359925 .30981446 .4283091 .300944 .4309896 .28857423 .43164063V.44726563H.48291017V.43164063C.45621745 .4309896 .43400065 .426946 .41625978 .4195099 .3985189 .41208396 .379069 .39883424 .35791017 .37976075L.24316406 .2738495 .35791017 .12861634C.3898112 .08841451 .41129557 .06299845 .42236329 .052368165 .43798829 .037017824 .45166017 .027053833 .4633789 .022476197 .47151695 .019210816 .4856771 .017578125 .5058594 .017578125V0H.28857423V.017578125C.300944 .017903647 .30932618 .019780478 .3137207 .023208619 .31811524 .026636759 .3203125 .031448366 .3203125 .037643434 .3203125 .045150758 .3138021 .057225545 .30078126 .0738678L.16357422 .24946594V.1015625C.16357422 .07224528 .16560872 .05297343 .16967774 .04374695 .17374675 .03453064 .17952474 .02794393 .18701172 .023986817 .1944987 .020039877 .21077474 .017903647 .23583985 .017578125V0H.008300781V.017578125C.03108724 .017578125 .048177083 .020360312 .059570314 .025924683 .06640625 .029525757 .071614589 .035095216 .07519531 .042633058 .080078128 .05343628 .08251953 .07210287 .08251953 .09863281V.5058594C.08251953 .55718997 .08138021 .58858236 .07910156 .6000366 .076822917 .61150106 .07307943 .61942037 .067871097 .62379458 .06266276 .6281789 .055826826 .6303711 .04736328 .6303711 .040527345 .6303711 .030273438 .6276042 .016601563 .6220703L.008300781 .63964846 .14111328 .69433596H.16357422Z"/>
<path id="font_21_3" d="M0 0Z"/>
<path id="font_21_36" d="M-.0009765625 .40429688 .13671875 .45898438H.15527344V.3540039C.17838542 .39320884 .20157878 .42066957 .22485352 .4363861 .24812825 .45210267 .2726237 .45996095 .29833985 .45996095 .34326173 .45996095 .38069663 .44240318 .41064454 .4072876 .44742839 .36435954 .4658203 .3084259 .4658203 .2394867 .4658203 .16241963 .4436849 .09868368 .39941407 .04827881 .36295573 .006978353 .31705729-.013671875 .26171876-.013671875 .2376302-.013671875 .21679688-.010253906 .19921875-.0034179688 .18619792 .0014648438 .17154949 .011230469 .15527344 .025878907V-.11035156C.15527344-.14112346 .15714519-.16068523 .16088867-.16903687 .16463216-.1773885 .17114258-.18401592 .18041992-.18891907 .18969727-.1938324 .20654297-.19628906 .23095703-.19628906V-.21386719H-.0034179688V-.19628906H.0087890629C.026692709-.19661458 .041992189-.19317627 .0546875-.18597412 .060872396-.18237305 .06567383-.17656453 .0690918-.16854859 .072509769-.16053264 .07421875-.14015706 .07421875-.107421878V.31640626C.07421875 .3455709 .072916667 .36408488 .0703125 .37194825 .067708339 .37982179 .063557948 .38571678 .057861329 .38963319 .052164716 .3935496 .044433595 .3955078 .03466797 .3955078 .026855469 .3955078 .016927084 .39322917 .0048828127 .38867188L-.0009765625 .40429688M.15527344 .3251953V.15820313C.15527344 .12207031 .15673828 .09830729 .15966797 .08691406 .16422527 .06803385 .17537435 .051432294 .19311524 .037109376 .21085613 .022786459 .23323567 .015625 .2602539 .015625 .292806 .015625 .3191732 .028320313 .33935548 .053710939 .36572267 .08691406 .37890626 .1336263 .37890626 .19384766 .37890626 .26220704 .36393229 .31477867 .33398438 .3515625 .31315104 .37695313 .28841148 .38964845 .25976563 .38964845 .24414063 .38964845 .22867839 .3857422 .2133789 .3779297 .20166016 .3720703 .18229167 .3544922 .15527344 .3251953Z"/>
<path id="font_21_35" d="M.25 .45996095C.31770835 .45996095 .3720703 .43427024 .41308595 .3828888 .44791667 .33899436 .46533204 .28858949 .46533204 .2316742 .46533204 .19167583 .45572917 .15118917 .43652345 .11021423 .41731773 .06924947 .39086915 .038360597 .35717774 .017547608 .32348634-.0032653809 .28597007-.013671875 .2446289-.013671875 .1772461-.013671875 .123697917 .013158162 .083984378 .06681824 .05045573 .11201477 .033691408 .16274007 .033691408 .21899414 .033691408 .2599691 .043863935 .30069987 .064208988 .34118653 .08455404 .3816732 .111328128 .41159059 .14453125 .43093873 .17773438 .45028688 .21289063 .45996095 .25 .45996095M.23486328 .42773438C.21761067 .42773438 .20027669 .42262269 .18286133 .4123993 .16544597 .40218608 .15136719 .38426719 .140625 .35864259 .12988281 .33301798 .12451172 .3000997 .12451172 .2598877 .12451172 .1950175 .13745117 .13906352 .16333008 .09202576 .18920899 .04499817 .2233073 .021484375 .265625 .021484375 .29720054 .021484375 .3232422 .03445943 .34375 .060409547 .3642578 .08635966 .37451173 .13095601 .37451173 .19419861 .37451173 .27334086 .35742188 .33561708 .3232422 .38102723 .30013023 .4121653 .27067057 .42773438 .23486328 .42773438Z"/>
<path id="font_21_38" d="M.3203125 .45996095V.3076172H.30419923C.29182945 .35527549 .2759603 .3876953 .2565918 .4048767 .23722331 .42206828 .21256511 .43066407 .18261719 .43066407 .15983074 .43066407 .1414388 .42466227 .1274414 .4126587 .11344401 .40065513 .10644531 .38735453 .10644531 .37275697 .10644531 .354599 .11165365 .33902995 .12207031 .3260498 .13216146 .3127543 .15266927 .29864503 .18359375 .28372193L.2548828 .24917603C.32096354 .21699016 .3540039 .17456563 .3540039 .121902469 .3540039 .08126322 .33862306 .04850769 .30786134 .023635865 .2770996-.0012359619 .24267578-.013671875 .20458985-.013671875 .1772461-.013671875 .1459961-.009033203 .110839847 .00024414063 .100097659 .0033365887 .091308597 .0048828127 .084472659 .0048828127 .07698568 .0048828127 .071126308 .0009765625 .06689453-.0068359377H.05078125V.15332031H.06689453C.07600912 .1077474 .09342448 .073404949 .119140628 .05029297 .14485677 .02718099 .17366536 .015625 .2055664 .015625 .22802735 .015625 .24633789 .022181193 .26049806 .03529358 .2746582 .048416139 .28173829 .064208988 .28173829 .08267212 .28173829 .10502116 .2738444 .123804729 .25805665 .13902283 .24226888 .1542511 .21077474 .17348226 .16357422 .19671631 .116373699 .21996053 .08544922 .24103801 .07080078 .25994874 .056152345 .27853395 .048828126 .30200706 .048828126 .33036805 .048828126 .36721293 .06144206 .39802043 .08666992 .42279054 .11189779 .4475708 .14453125 .45996095 .18457031 .45996095 .20214844 .45996095 .22347005 .45621745 .24853516 .44873048 .26513673 .44384767 .27620445 .44140626 .28173829 .44140626 .28694663 .44140626 .29101563 .44254557 .2939453 .44482423 .296875 .44710288 .30029298 .45214845 .30419923 .45996095H.3203125Z"/>
<path id="font_21_30" d="M.14501953 .69433596C.1586914 .69433596 .17032878 .6895091 .17993164 .67985537 .1895345 .6702118 .19433594 .6585185 .19433594 .6447754 .19433594 .6310323 .1895345 .6192525 .17993164 .60943606 .17032878 .5996297 .1586914 .59472659 .14501953 .59472659 .13134766 .59472659 .119628909 .5996297 .10986328 .60943606 .100097659 .6192525 .095214847 .6310323 .095214847 .6447754 .095214847 .6585185 .10001627 .6702118 .10961914 .67985537 .11922201 .6895091 .13102214 .69433596 .14501953 .69433596M.18554688 .45996095V.1015625C.18554688 .073404949 .18758138 .054656984 .19165039 .045318605 .1957194 .0359904 .20174153 .029032389 .2097168 .02444458 .21769206 .019866944 .23225911 .017578125 .25341798 .017578125V0H.036132814V.017578125C.057942708 .017578125 .07259115 .019704184 .080078128 .023956299 .0875651 .028218588 .09350586 .035257978 .09790039 .045074464 .10229492 .054901124 .10449219 .07373047 .10449219 .1015625V.27246095C.10449219 .321167 .103027347 .352712 .100097659 .36709596 .09781901 .37756349 .09423828 .38483177 .08935547 .38890077 .084472659 .39297996 .07779948 .39501954 .06933594 .39501954 .060221357 .39501954 .049153646 .39257813 .036132814 .3876953L.029296875 .40527345 .1640625 .45996095H.18554688Z"/>
<path id="font_21_39" d="M.16113281 .59472659V.44726563H.265625V.4140625L.16113281 .41308595V.12265015C.16113281 .09364828 .1652832 .07409159 .17358399 .0639801 .18188477 .053878786 .19254558 .048828126 .2055664 .048828126 .2163086 .048828126 .22672527 .052205404 .2368164 .05895996 .24690755 .065714519 .25472007 .075683597 .2602539 .08886719H.27929688C.26790367 .056803388 .25179038 .032674154 .23095703 .016479493 .2101237 .00028483073 .18863933-.0078125 .1665039-.0078125 .15152996-.0078125 .13688152-.0036468507 .122558597 .0046844484 .10823568 .013015747 .09765625 .024937949 .09082031 .04045105 .083984378 .055964155 .080566409 .07988993 .080566409 .11222839V.4140625H.009765625V.42971803C.027669272 .43683879 .045979818 .44889323 .064697269 .46588136 .08341471 .48286949 .100097659 .50311788 .114746097 .5266266 .12223307 .53903707 .13264974 .56173709 .1459961 .59472659H.16113281Z"/>
<path id="font_21_41" d="M.008300781 .44726563H.21875V.4296875H.20507813C.19238281 .4296875 .18269857 .42659507 .17602539 .42041017 .16935222 .41422526 .16601563 .40592448 .16601563 .3955078 .16601563 .3841146 .1694336 .37060548 .17626953 .35498048L.28027345 .107910159 .38476563 .3642578C.3922526 .38248698 .3959961 .39632163 .3959961 .40576173 .3959961 .410319 .394694 .4140625 .39208985 .4169922 .38850913 .421875 .3839518 .42521159 .37841798 .42700196 .37288413 .42879234 .36165367 .4296875 .34472657 .4296875V.44726563H.49072267V.4296875C.47379557 .42837525 .4620768 .42493186 .4555664 .4193573 .4441732 .40952049 .43391929 .39312236 .4248047 .37016297L.26611329-.013671875H.24609375L.08642578 .36405946C.07926432 .38168846 .07242838 .39433799 .06591797 .40200807 .05940755 .40968833 .05110677 .4161377 .041015626 .4213562 .03548177 .42429606 .024576823 .42707316 .008300781 .4296875V.44726563Z"/>
<path id="font_21_43" d="M.005859375 .44726563H.21435547V.4296875H.20410156C.18945313 .4296875 .1784668 .4264984 .17114258 .42012025 .16381836 .41374208 .16015625 .4058126 .16015625 .3963318 .16015625 .38357545 .16552735 .36591593 .17626953 .34335328L.28515626 .1171875 .3852539 .3648224C.39078776 .37825013 .3935547 .39152018 .3935547 .40463258 .3935547 .41052247 .39241538 .4149424 .39013673 .41789247 .38753257 .42149354 .38346354 .4243571 .3779297 .42648316 .37239585 .42861939 .36263023 .4296875 .3486328 .4296875V.44726563H.49414063V.4296875C.48209635 .4283854 .472819 .4257711 .4663086 .42184449 .4597982 .41792808 .45263673 .4105784 .44482423 .39979554 .44189454 .3952179 .4363607 .38263957 .42822267 .36206056L.24609375-.08401489C.22851563-.12746175 .20548503-.1602885 .17700196-.18249512 .14851888-.20471192 .12109375-.21582031 .09472656-.21582031 .075520839-.21582031 .059733076-.21025594 .04736328-.1991272 .03499349-.18800862 .028808594-.17525737 .028808594-.16087342 .028808594-.14713033 .033284505-.13608806 .042236329-.12774658 .051188154-.11940511 .06347656-.115234378 .07910156-.115234378 .08984375-.115234378 .10449219-.11871847 .123046878-.12568665 .1360677-.13043721 .14420574-.1328125 .14746094-.1328125 .15722656-.1328125 .16788738-.12780254 .17944336-.11778259 .19099935-.10776266 .20263672-.08837382 .21435547-.05961609L.24609375 .018508912 .08544922 .35502626C.080566409 .36517845 .072753909 .37778727 .06201172 .39285279 .0538737 .40430705 .04720052 .41200257 .041992189 .41593934 .034505208 .4211782 .022460938 .4257609 .005859375 .4296875V.44726563Z"/>
<path id="font_21_5" d="M.31054688-.1953125V-.21386719C.26139323-.18912761 .22037761-.16015625 .1875-.12695313 .140625-.0797526 .10449219-.024088541 .07910156 .040039064 .053710939 .104166667 .041015626 .17073567 .041015626 .2397461 .041015626 .34065757 .06591797 .43269859 .115722659 .51586917 .16552735 .59903976 .23046875 .6585286 .31054688 .69433596V.6738281C.2705078 .6517029 .2376302 .6214447 .21191406 .5830536 .18619792 .5446625 .16699219 .49602256 .15429688 .4371338 .14160156 .37825523 .1352539 .31676737 .1352539 .2526703 .1352539 .18304952 .140625 .119771327 .15136719 .06283569 .15983074 .017944336 .17008464-.018081665 .1821289-.04524231 .19417317-.072413127 .21036785-.09852091 .23071289-.123565677 .25105796-.1486206 .27766929-.17253621 .31054688-.1953125Z"/>
<path id="font_21_4" d="M.6796875 .6767578 .19726563-.02734375H.1538086L.63623049 .6767578H.6796875M.17773438 .6767578C.22167969 .6767578 .25577799 .65850326 .2800293 .621994 .3042806 .5854848 .31640626 .5435994 .31640626 .4963379 .31640626 .43961589 .30273438 .3957723 .27539063 .36480714 .24804688 .33384196 .21516927 .31835938 .17675781 .31835938 .15104167 .31835938 .1274414 .32544963 .10595703 .33963014 .084472659 .35381065 .06730143 .37491355 .05444336 .40293885 .041585287 .43097434 .03515625 .46210734 .03515625 .4963379 .03515625 .5305583 .041666669 .5620931 .0546875 .5909424 .067708339 .6197917 .0855306 .6413066 .1081543 .65548709 .130778 .66966757 .15397136 .6767578 .17773438 .6767578M.17626953 .6484375C.15966797 .6484375 .14493816 .63868716 .13208008 .6191864 .11922201 .59968569 .11279297 .55873617 .11279297 .4963379 .11279297 .4511617 .116373699 .41671244 .123535159 .3929901 .12906902 .37511698 .13769531 .3613027 .14941406 .35154725 .15625 .34569804 .16471355 .34277345 .17480469 .34277345 .19042969 .34277345 .20377605 .3512217 .21484375 .3681183 .2311198 .3931427 .23925781 .434906 .23925781 .4934082 .23925781 .5551656 .23128255 .5985565 .21533203 .62358096 .20491536 .640152 .19189453 .6484375 .17626953 .6484375M.65722659 .32910157C.68033859 .32910157 .70336917 .32176719 .72631838 .3070984 .7492676 .2924296 .7670085 .27107749 .779541 .24304199 .79207357 .21501668 .79833987 .18421428 .79833987 .15063477 .79833987 .092936199 .7845052 .04884847 .75683596 .018371582 .7291667-.012105306 .69645187-.02734375 .6586914-.02734375 .6349284-.02734375 .61189779-.02000936 .5895996-.005340576 .56730148 .009328206 .5497233 .03026835 .53686526 .05747986 .52400717 .08470154 .5175781 .115753177 .5175781 .15063477 .5175781 .18486531 .52400717 .216156 .53686526 .24450684 .5497233 .27286784 .56730148 .29405723 .5895996 .30807496 .61189779 .32209269 .6344401 .32910157 .65722659 .32910157M.65771487 .30273438C.64208987 .30273438 .62858077 .29397584 .6171875 .27645875 .60253909 .2537435 .59521487 .21074932 .59521487 .1474762 .59521487 .089391078 .60270187 .04883321 .6176758 .025802613 .62874349 .009251912 .64208987 .0009765625 .65771487 .0009765625 .6726888 .0009765625 .68603518 .009897868 .6977539 .027740479 .7133789 .051432294 .7211914 .092152919 .7211914 .14990235 .7211914 .21090698 .7133789 .25357566 .6977539 .27790834 .6870117 .29445903 .67366537 .30273438 .65771487 .30273438Z"/>
<path id="font_21_6" d="M.022460938 .6738281V.69433596C.0719401 .6699219 .11311849 .6411133 .1459961 .60791018 .19254558 .5603841 .22851563 .5046387 .25390626 .44067384 .27929688 .37670899 .2919922 .3100586 .2919922 .24072266 .2919922 .1398112 .26717124 .047770185 .2175293-.03540039 .16788738-.11857096 .102864589-.17805989 .022460938-.21386719V-.1953125C.0625-.17286174 .095458988-.14252217 .12133789-.10429382 .1472168-.06606547 .16642253-.017430624 .17895508 .041610719 .19148763 .10066223 .1977539 .16223145 .1977539 .22631836 .1977539 .29562379 .19238281 .35890199 .18164063 .41615296 .17350261 .46105448 .16333008 .49700419 .15112305 .5240021 .13891602 .55101016 .12272135 .57703658 .10253906 .6020813 .08235677 .62713626 .055664064 .6510518 .022460938 .6738281Z"/>
<clipPath id="clip_22">
<path transform="matrix(1,0,0,-1,0,131.19637)" d="M27.075 17.886675H116.23981V121.56667H27.075Z"/>
</clipPath>
<clipPath id="clip_23">
<path transform="matrix(1,0,0,-1,0,131.19637)" d="M27.075 17.886675H116.23981V121.56667H27.075Z"/>
</clipPath>
<clipPath id="clip_24">
<path transform="matrix(1,0,0,-1,0,131.19637)" d="M27.075 17.886675H116.23981V121.56667H27.075Z"/>
</clipPath>
<clipPath id="clip_25">
<path transform="matrix(1,0,0,-1,0,131.19637)" d="M27.075 17.886675H116.23981V121.56667H27.075Z"/>
</clipPath>
<clipPath id="clip_26">
<path transform="matrix(1,0,0,-1,0,131.19637)" d="M27.075 17.886675H116.23981V121.56667H27.075Z"/>
</clipPath>
<clipPath id="clip_27">
<path transform="matrix(1,0,0,-1,0,131.19637)" d="M27.075 17.886675H116.23981V121.56667H27.075Z"/>
</clipPath>
<clipPath id="clip_28">
<path transform="matrix(1,0,0,-1,0,131.19637)" d="M27.075 17.886675H116.23981V121.56667H27.075Z"/>
</clipPath>
<clipPath id="clip_29">
<path transform="matrix(1,0,0,-1,0,131.19637)" d="M27.075 17.886675H116.23981V121.56667H27.075Z"/>
</clipPath>
<clipPath id="clip_30">
<path transform="matrix(1,0,0,-1,0,131.19637)" d="M27.075 17.886675H116.23981V121.56667H27.075Z"/>
</clipPath>
<clipPath id="clip_31">
<path transform="matrix(1,0,0,-1,0,131.19637)" d="M27.075 17.886675H116.23981V121.56667H27.075Z"/>
</clipPath>
<clipPath id="clip_32">
<path transform="matrix(1,0,0,-1,0,131.19637)" d="M27.075 17.886675H116.23981V121.56667H27.075Z"/>
</clipPath>
<clipPath id="clip_33">
<path transform="matrix(1,0,0,-1,0,131.19637)" d="M27.075 17.886675H116.23981V121.56667H27.075Z"/>
</clipPath>
<clipPath id="clip_34">
<path transform="matrix(1,0,0,-1,0,131.19637)" d="M27.075 17.886675H116.23981V121.56667H27.075Z"/>
</clipPath>
<clipPath id="clip_35">
<path transform="matrix(1,0,0,-1,0,131.19637)" d="M27.075 17.886675H116.23981V121.56667H27.075Z"/>
</clipPath>
<clipPath id="clip_36">
<path transform="matrix(1,0,0,-1,0,131.19637)" d="M27.075 17.886675H116.23981V121.56667H27.075Z"/>
</clipPath>
<clipPath id="clip_37">
<path transform="matrix(1,0,0,-1,0,131.19637)" d="M27.075 17.886675H116.23981V121.56667H27.075Z"/>
</clipPath>
<clipPath id="clip_38">
<path transform="matrix(1,0,0,-1,0,131.19637)" d="M27.075 17.886675H116.23981V121.56667H27.075Z"/>
</clipPath>
<clipPath id="clip_39">
<path transform="matrix(1,0,0,-1,0,131.19637)" d="M27.075 17.886675H116.23981V121.56667H27.075Z"/>
</clipPath>
<clipPath id="clip_40">
<path transform="matrix(1,0,0,-1,0,131.19637)" d="M27.075 17.886675H116.23981V121.56667H27.075Z"/>
</clipPath>
<clipPath id="clip_41">
<path transform="matrix(1,0,0,-1,0,131.19637)" d="M27.075 17.886675H116.23981V121.56667H27.075Z"/>
</clipPath>
<clipPath id="clip_42">
<path transform="matrix(1,0,0,-1,0,131.19637)" d="M27.075 17.886675H116.23981V121.56667H27.075Z"/>
</clipPath>
<clipPath id="clip_43">
<path transform="matrix(1,0,0,-1,0,131.19637)" d="M27.075 17.886675H116.23981V121.56667H27.075Z"/>
</clipPath>
<clipPath id="clip_44">
<path transform="matrix(1,0,0,-1,0,131.19637)" d="M27.075 17.886675H116.23981V121.56667H27.075Z"/>
</clipPath>
<clipPath id="clip_45">
<path transform="matrix(1,0,0,-1,0,131.19637)" d="M27.075 17.886675H116.23981V121.56667H27.075Z"/>
</clipPath>
<clipPath id="clip_46">
<path transform="matrix(1,0,0,-1,0,131.19637)" d="M27.075 17.886675H116.23981V121.56667H27.075Z"/>
</clipPath>
<clipPath id="clip_47">
<path transform="matrix(1,0,0,-1,0,131.19637)" d="M27.075 17.886675H116.23981V121.56667H27.075Z"/>
</clipPath>
<clipPath id="clip_48">
<path transform="matrix(1,0,0,-1,0,131.19637)" d="M27.075 17.886675H116.23981V121.56667H27.075Z"/>
</clipPath>
<clipPath id="clip_49">
<path transform="matrix(1,0,0,-1,0,131.19637)" d="M27.075 17.886675H116.23981V121.56667H27.075Z"/>
</clipPath>
<clipPath id="clip_50">
<path transform="matrix(1,0,0,-1,0,131.19637)" d="M27.075 17.886675H116.23981V121.56667H27.075Z"/>
</clipPath>
<clipPath id="clip_51">
<path transform="matrix(1,0,0,-1,0,131.19637)" d="M27.075 17.886675H116.23981V121.56667H27.075Z"/>
</clipPath>
<clipPath id="clip_52">
<path transform="matrix(1,0,0,-1,0,131.19637)" d="M27.075 17.886675H116.23981V121.56667H27.075Z"/>
</clipPath>
<clipPath id="clip_53">
<path transform="matrix(1,0,0,-1,0,131.19637)" d="M27.075 17.886675H116.23981V121.56667H27.075Z"/>
</clipPath>
<clipPath id="clip_54">
<path transform="matrix(1,0,0,-1,0,131.19637)" d="M27.075 17.886675H116.23981V121.56667H27.075Z"/>
</clipPath>
<clipPath id="clip_55">
<path transform="matrix(1,0,0,-1,0,131.19637)" d="M27.075 17.886675H116.23981V121.56667H27.075Z"/>
</clipPath>
<clipPath id="clip_56">
<path transform="matrix(1,0,0,-1,0,131.19637)" d="M27.075 17.886675H116.23981V121.56667H27.075Z"/>
</clipPath>
<clipPath id="clip_57">
<path transform="matrix(1,0,0,-1,0,131.19637)" d="M27.075 17.886675H116.23981V121.56667H27.075Z"/>
</clipPath>
<clipPath id="clip_58">
<path transform="matrix(1,0,0,-1,0,131.19637)" d="M27.075 17.886675H116.23981V121.56667H27.075Z"/>
</clipPath>
<clipPath id="clip_59">
<path transform="matrix(1,0,0,-1,0,131.19637)" d="M27.075 17.886675H116.23981V121.56667H27.075Z"/>
</clipPath>
<clipPath id="clip_60">
<path transform="matrix(1,0,0,-1,0,131.19637)" d="M27.075 17.886675H116.23981V121.56667H27.075Z"/>
</clipPath>
<clipPath id="clip_61">
<path transform="matrix(1,0,0,-1,0,131.19637)" d="M27.075 17.886675H116.23981V121.56667H27.075Z"/>
</clipPath>
<clipPath id="clip_62">
<path transform="matrix(1,0,0,-1,0,131.19637)" d="M27.075 17.886675H116.23981V121.56667H27.075Z"/>
</clipPath>
<clipPath id="clip_63">
<path transform="matrix(1,0,0,-1,0,131.19637)" d="M27.075 17.886675H116.23981V121.56667H27.075Z"/>
</clipPath>
<clipPath id="clip_64">
<path transform="matrix(1,0,0,-1,0,131.19637)" d="M27.075 17.886675H116.23981V121.56667H27.075Z"/>
</clipPath>
<clipPath id="clip_65">
<path transform="matrix(1,0,0,-1,0,131.19637)" d="M27.075 17.886675H116.23981V121.56667H27.075Z"/>
</clipPath>
<clipPath id="clip_66">
<path transform="matrix(1,0,0,-1,0,131.19637)" d="M27.075 17.886675H116.23981V121.56667H27.075Z"/>
</clipPath>
<clipPath id="clip_67">
<path transform="matrix(1,0,0,-1,0,131.19637)" d="M27.075 17.886675H116.23981V121.56667H27.075Z"/>
</clipPath>
<clipPath id="clip_68">
<path transform="matrix(1,0,0,-1,0,131.19637)" d="M27.075 17.886675H116.23981V121.56667H27.075Z"/>
</clipPath>
<clipPath id="clip_69">
<path transform="matrix(1,0,0,-1,0,131.19637)" d="M27.075 17.886675H116.23981V121.56667H27.075Z"/>
</clipPath>
<clipPath id="clip_70">
<path transform="matrix(1,0,0,-1,0,131.19637)" d="M27.075 17.886675H116.23981V121.56667H27.075Z"/>
</clipPath>
<clipPath id="clip_71">
<path transform="matrix(1,0,0,-1,0,131.19637)" d="M27.075 17.886675H116.23981V121.56667H27.075Z"/>
</clipPath>
<clipPath id="clip_72">
<path transform="matrix(1,0,0,-1,0,131.19637)" d="M27.075 17.886675H116.23981V121.56667H27.075Z"/>
</clipPath>
<clipPath id="clip_73">
<path transform="matrix(1,0,0,-1,0,131.19637)" d="M27.075 17.886675H116.23981V121.56667H27.075Z"/>
</clipPath>
<clipPath id="clip_74">
<path transform="matrix(1,0,0,-1,0,131.19637)" d="M27.075 17.886675H116.23981V121.56667H27.075Z"/>
</clipPath>
<clipPath id="clip_75">
<path transform="matrix(1,0,0,-1,0,131.19637)" d="M27.075 17.886675H116.23981V121.56667H27.075Z"/>
</clipPath>
<clipPath id="clip_76">
<path transform="matrix(1,0,0,-1,0,131.19637)" d="M27.075 17.886675H116.23981V121.56667H27.075Z"/>
</clipPath>
<clipPath id="clip_77">
<path transform="matrix(1,0,0,-1,0,131.19637)" d="M27.075 17.886675H116.23981V121.56667H27.075Z"/>
</clipPath>
<clipPath id="clip_78">
<path transform="matrix(1,0,0,-1,0,131.19637)" d="M27.075 17.886675H116.23981V121.56667H27.075Z"/>
</clipPath>
<clipPath id="clip_79">
<path transform="matrix(1,0,0,-1,0,131.19637)" d="M27.075 17.886675H116.23981V121.56667H27.075Z"/>
</clipPath>
<clipPath id="clip_80">
<path transform="matrix(1,0,0,-1,0,131.19637)" d="M27.075 17.886675H116.23981V121.56667H27.075Z"/>
</clipPath>
<clipPath id="clip_81">
<path transform="matrix(1,0,0,-1,0,131.19637)" d="M27.075 17.886675H116.23981V121.56667H27.075Z"/>
</clipPath>
<path id="font_21_17" d="M.6020508 .6767578 .6171875 .45117188H.6020508C.58186849 .5187276 .5530599 .5673523 .515625 .5970459 .4781901 .6267497 .43326823 .64160159 .38085938 .64160159 .33691407 .64160159 .29720054 .6304677 .26171876 .6082001 .22623699 .58594259 .19832357 .55043539 .17797852 .50167849 .15763347 .45293174 .14746094 .39232383 .14746094 .31985475 .14746094 .26005046 .1570638 .20821126 .17626953 .16433716 .19547527 .12046305 .22436524 .08682251 .26293946 .06341553 .30151368 .04001872 .34554038 .028320313 .39501954 .028320313 .43798829 .028320313 .47591148 .037546796 .50878909 .055999757 .5416667 .07446289 .5777995 .11113485 .6171875 .16601563L.6323242 .15625C.5991211 .0971578 .5603841 .053899129 .5161133 .026473999 .47184245-.0009409587 .41927085-.0146484379 .35839845-.0146484379 .24869792-.0146484379 .16373699 .025985718 .103515628 .10725403 .05859375 .16770935 .036132814 .23889669 .036132814 .32081605 .036132814 .3868052 .05094401 .44742839 .080566409 .50268557 .110188808 .5579427 .15096028 .60076907 .20288086 .63116458 .25480143 .66156008 .31152345 .6767578 .37304688 .6767578 .42089845 .6767578 .46809898 .66503909 .51464846 .64160159 .5283203 .6344401 .53808596 .6308594 .5439453 .6308594 .5527344 .6308594 .5603841 .63395187 .56689456 .6401367 .5753581 .6489258 .5813802 .6611328 .58496096 .6767578H.6020508Z"/>
<path id="font_21_32" d="M.1850586 .69433596V.1015625C.1850586 .073404949 .1870931 .05473836 .19116211 .045562746 .19523113 .036397298 .20149739 .029439291 .20996094 .02468872 .21842449 .019948325 .23421224 .017578125 .25732423 .017578125V0H.038085939V.017578125C.05859375 .017578125 .07259115 .019704184 .080078128 .023956299 .0875651 .028218588 .09342448 .035257978 .09765625 .045074464 .10188802 .054901124 .104003909 .07373047 .104003909 .1015625V.50683596C.104003909 .5572917 .102864589 .58829757 .10058594 .5998535 .09830729 .6114095 .09464518 .6193034 .08959961 .62353518 .08455404 .6277669 .078125 .6298828 .0703125 .6298828 .061848958 .6298828 .05110677 .6272786 .038085939 .6220703L.029785157 .63964846 .16308594 .69433596H.1850586Z"/>
<path id="font_21_40" d="M.42333985 .44726563V.17480469C.42333985 .123687747 .42456056 .092422489 .42700196 .08100891 .42944337 .06960551 .4333496 .061635335 .4387207 .05709839 .4440918 .052561445 .45035807 .05029297 .45751954 .05029297 .4676107 .05029297 .4790039 .053059896 .49169923 .05859375L.49853517 .041015626 .3647461-.013671875H.34277345V.08061218C.30436198 .039138795 .2750651 .0130564379 .2548828 .0023651124 .23470052-.008326213 .2133789-.013671875 .19091797-.013671875 .16585286-.013671875 .14412435-.0064290368 .12573242 .008056641 .10734049 .022542319 .094563808 .041178388 .087402347 .063964847 .08024088 .086751308 .076660159 .11897787 .076660159 .16064453V.36035157C.076660159 .381663 .07438151 .39641319 .06982422 .40460206 .06526693 .41280113 .05851237 .41911317 .049560548 .4235382 .040608724 .42796327 .024414063 .43001304 .0009765625 .4296875V.44726563H.15771485V.14758301C.15771485 .10586548 .16495769 .07848612 .17944336 .06544495 .19392903 .05241394 .21142578 .045898439 .2319336 .045898439 .24593099 .045898439 .26180015 .050298055 .27954103 .05909729 .2972819 .06789652 .31835938 .08468119 .34277345 .109451297V.3623047C.34277345 .3882548 .33813478 .4058075 .32885743 .41496278 .31958009 .42411805 .30029298 .42902629 .2709961 .4296875V.44726563H.42333985Z"/>
<path id="font_21_8" d="M.125 .09472656C.14029949 .09472656 .15315755 .08943685 .16357422 .07885742 .17399089 .06827799 .17919922 .0555013 .17919922 .040527345 .17919922 .025553385 .1739095 .012776692 .16333008 .0021972657 .15275066-.008382161 .13997396-.013671875 .125-.013671875 .11002604-.013671875 .09724935-.008382161 .08666992 .0021972657 .07609049 .012776692 .07080078 .025553385 .07080078 .040527345 .07080078 .055826826 .07609049 .0686849 .08666992 .07910156 .09724935 .08951823 .11002604 .09472656 .125 .09472656Z"/>
<path id="font_21_12" d="M.05078125 .5361328C.06966146 .5807292 .09350586 .615153 .12231445 .6394043 .15112305 .6636556 .18701172 .67578127 .22998047 .67578127 .28304038 .67578127 .32373048 .6585286 .35205079 .62402346 .37353517 .5983073 .38427735 .5708008 .38427735 .5415039 .38427735 .4933268 .3540039 .44352214 .29345704 .39208985 .33414714 .3761393 .36490885 .35335288 .3857422 .32373048 .40657554 .29410807 .4169922 .25927735 .4169922 .21923828 .4169922 .16194661 .39876304 .11230469 .3623047 .0703125 .31477867 .015625 .24593099-.01171875 .15576172-.01171875 .11116537-.01171875 .08081055-.006184896 .064697269 .0048828127 .048583986 .015950522 .040527345 .027832032 .040527345 .040527345 .040527345 .04996745 .044352216 .05826823 .052001954 .06542969 .05965169 .07259115 .068847659 .076171878 .079589847 .076171878 .08772787 .076171878 .09602865 .07488505 .10449219 .0723114 .11002604 .07069397 .122558597 .06481425 .14208985 .05467224 .1616211 .04453023 .1751302 .03849284 .18261719 .03656006 .19466146 .03302002 .20751953 .03125 .2211914 .03125 .25439454 .03125 .28328453 .044108076 .30786134 .06982422 .33243815 .09554037 .34472657 .12597656 .34472657 .16113281 .34472657 .18684896 .33902995 .21191406 .32763673 .23632813 .3191732 .25455729 .30989585 .26839195 .2998047 .27783204 .28580729 .29085288 .26660157 .30265299 .2421875 .31323243 .21777344 .32381187 .1928711 .32910157 .16748047 .32910157H.15185547V.34375C.17757161 .34699504 .20336914 .35625205 .22924805 .371521 .25512696 .38680015 .27392579 .40516154 .28564454 .42660523 .29736329 .44804893 .30322267 .4716085 .30322267 .49728395 .30322267 .5307414 .2927246 .55778506 .27172853 .5784149 .25073243 .599055 .22460938 .609375 .19335938 .609375 .14290364 .609375 .100748699 .58235678 .06689453 .5283203L.05078125 .5361328Z"/>
<path id="font_21_19" d="M.61376956 .6767578 .6308594 .46777345H.61376956C.5965169 .51956179 .57421877 .5585683 .546875 .5847931 .507487 .6226654 .4568685 .64160159 .39501954 .64160159 .31070964 .64160159 .24658203 .6083374 .20263672 .5418091 .16585286 .4856771 .14746094 .4188334 .14746094 .34127809 .14746094 .2783203 .15966797 .22088115 .18408203 .16896057 .2084961 .11704 .24047852 .07898966 .2800293 .05480957 .31958009 .030639649 .3601888 .018554688 .40185548 .018554688 .42626954 .018554688 .44986979 .021636963 .47265626 .027801514 .49544273 .03397624 .51741537 .04307556 .5385742 .055099489V.24609375C.5385742 .27929688 .53605148 .3010254 .53100588 .3112793 .52596029 .3215332 .51814779 .3293457 .50756838 .3347168 .49698893 .3400879 .47835288 .34277345 .45166017 .34277345V.36132813H.7080078V.34277345H.6958008C.67041018 .34277345 .6529948 .3343099 .6435547 .3173828 .63704428 .30533854 .63378909 .28157554 .63378909 .24609375V.0438385C.5963542 .0236969 .55940756 .008916219 .5229492-.00050354006 .48649089-.009933472 .44596354-.0146484379 .4013672-.0146484379 .2734375-.0146484379 .17626953 .02631124 .10986328 .10823059 .060058595 .16966248 .03515625 .24052429 .03515625 .32081605 .03515625 .3790029 .049153646 .43474833 .07714844 .48805238 .11035156 .5514476 .15592449 .60020956 .21386719 .6343384 .26236979 .662618 .31966148 .6767578 .3857422 .6767578 .40983073 .6767578 .43172203 .6748047 .45141603 .67089846 .47111003 .6669922 .49902345 .6583659 .53515627 .64501956 .55338546 .6381836 .56559249 .6347656 .57177737 .6347656 .5779622 .6347656 .58325198 .63761398 .5876465 .64331057 .592041 .64900717 .59472659 .66015627 .5957031 .6767578H.61376956Z"/>
<path id="font_21_23" d="M.20507813 .30978395V.1171875C.20507813 .07572428 .20963542 .049972536 .21875 .03993225 .2311198 .025680542 .24983724 .018554688 .27490235 .018554688H.30029298V0H.016601563V.018554688H.041503908C.069498699 .018554688 .08951823 .027623496 .1015625 .04576111 .108072917 .05580139 .111328128 .07961019 .111328128 .1171875V.5449219C.111328128 .5863851 .106933597 .61213687 .09814453 .6221771 .08544922 .63642886 .06656901 .6435547 .041503908 .6435547H.016601563V.6621094H.25927735C.31852214 .6621094 .36523438 .65599569 .39941407 .6437683 .43359376 .6315511 .46240235 .61093649 .48583985 .58192446 .50927737 .5529124 .5209961 .51852419 .5209961 .47875978 .5209961 .4246521 .5031738 .38064576 .4675293 .34674073 .43188478 .31284587 .3815104 .29589845 .31640626 .29589845 .30045573 .29589845 .28320313 .297053 .26464845 .29936219 .24609375 .30168153 .22623699 .30515544 .20507813 .30978395M.20507813 .33787538C.22233074 .33462016 .2376302 .33217875 .25097657 .33055116 .2643229 .32893373 .27571617 .328125 .28515626 .328125 .3190104 .328125 .34822593 .34120179 .37280274 .36735536 .39737956 .39351908 .40966798 .42740379 .40966798 .4690094 .40966798 .49760438 .4038086 .5241699 .39208985 .54870608 .3803711 .5732422 .36376954 .5916036 .34228517 .6037903 .32080079 .615977 .29638673 .6220703 .26904298 .6220703 .2524414 .6220703 .2311198 .618983 .20507813 .6128082V.33787538Z"/>
<path id="font_21_24" d="M.5786133 .6621094 .5859375 .50634768H.5673828C.56380209 .5336914 .55891928 .55322268 .5527344 .5649414 .54264327 .5838216 .5292155 .5977376 .5124512 .60668948 .49568687 .6156413 .4736328 .6201172 .44628907 .6201172H.35302735V.115234378C.35302735 .07454427 .35742188 .049153646 .36621095 .0390625 .37858073 .025390625 .3976237 .018554688 .42333985 .018554688H.44628907V0H.16552735V.018554688H.18896485C.21695964 .018554688 .2368164 .027018229 .24853516 .043945314 .25569663 .05436198 .25927735 .078125 .25927735 .115234378V.6201172H.1796875C.14876302 .6201172 .12679036 .61783859 .11376953 .61328127 .096842449 .6070964 .08235677 .59521487 .0703125 .5776367 .05826823 .5600586 .05110677 .5362956 .048828126 .50634768H.030273438L.038085939 .6621094H.5786133Z"/>
<path id="font_21_7" d="M.040527345 .26171876H.29296876V.1875H.040527345V.26171876Z"/>
<path id="font_21_13" d="M.46533204 .24414063V.17480469H.37646485V0H.29589845V.17480469H.015625V.23730469L.3227539 .67578127H.37646485V.24414063H.46533204M.29589845 .24414063V.5725708L.06347656 .24414063H.29589845Z"/>
<path id="font_21_21" d="M.5732422 .18359375 .58935549 .18016052 .53271487 0H.020019532V.018554688H.044921876C.072916667 .018554688 .092936199 .027577719 .10498047 .04562378 .111816409 .05593872 .115234378 .0797933 .115234378 .1171875V.5449219C.115234378 .5860596 .110677089 .61181136 .1015625 .6221771 .08886719 .63642886 .06998698 .6435547 .044921876 .6435547H.020019532V.6621094H.31982423V.6435547C.28466798 .6438802 .26000978 .6406555 .24584961 .6338806 .23168946 .6271057 .2220052 .6185557 .21679688 .6082306 .21158855 .59790548 .20898438 .57322189 .20898438 .5341797V.117752078C.20898438 .09070333 .21158855 .072128299 .21679688 .062026979 .22070313 .05519104 .22672527 .05014038 .23486328 .046875 .2430013 .043619794 .26839195 .041992189 .31103517 .041992189H.359375C.41015626 .041992189 .44580079 .04574585 .4663086 .053253175 .4868164 .06077067 .5055339 .07408142 .52246096 .093185428 .539388 .1122996 .5563151 .14243572 .5732422 .18359375Z"/>
<path id="font_21_22" d="M.4091797 0 .15332031 .5571289V.115234378C.15332031 .07454427 .15771485 .049153646 .1665039 .0390625 .17854817 .025390625 .19759114 .018554688 .22363281 .018554688H.24707031V0H.016601563V.018554688H.040039064C.06803385 .018554688 .087890628 .027018229 .099609378 .043945314 .106770839 .05436198 .11035156 .078125 .11035156 .115234378V.546875C.11035156 .5761719 .10709635 .59733077 .10058594 .61035159 .09602865 .6197917 .087646488 .62768557 .07543945 .6340332 .06323242 .64038088 .043619794 .6435547 .016601563 .6435547V.6621094H.20410156L.44433595 .14414978 .68066409 .6621094H.86816409V.6435547H.84521487C.81689456 .6435547 .796875 .6350911 .78515627 .61816409 .7779948 .6077474 .77441409 .5839844 .77441409 .546875V.115234378C.77441409 .07454427 .7789714 .049153646 .78808596 .0390625 .8001302 .025390625 .81917318 .018554688 .84521487 .018554688H.86816409V0H.58691409V.018554688H.61035159C.6386719 .018554688 .6585286 .027018229 .6699219 .043945314 .6770833 .05436198 .68066409 .078125 .68066409 .115234378V.5571289L.42529298 0H.4091797Z"/>
<path id="font_21_16" d="M.45751954 .22167969H.20117188L.15625 .1171875C.1451823 .09159342 .13964844 .07248434 .13964844 .05986023 .13964844 .049809774 .14444988 .040980024 .15405274 .03337097 .1636556 .025761923 .18440755 .02082316 .2163086 .018554688V0H.0078125V.018554688C.03548177 .023427329 .053385419 .029759726 .061523439 .03755188 .078125 .053146364 .09651693 .08481344 .11669922 .1325531L.34960938 .6767578H.36669923L.59716799 .12646485C.61572268 .08239746 .63256838 .053797407 .6477051 .040664674 .6628418 .027542115 .68391928 .02017212 .7109375 .018554688V0H.44970704V.018554688C.47607423 .019846598 .49389649 .024220786 .5031738 .031677247 .5124512 .03913371 .51708987 .0482076 .51708987 .058898927 .51708987 .073160808 .5105794 .09568278 .4975586 .12646485L.45751954 .22167969M.44384767 .2578125 .33154298 .5253906 .2163086 .2578125H.44384767Z"/>
<path id="font_21_37" d="M.16210938 .45996095V.359375C.19954427 .42643229 .23795574 .45996095 .27734376 .45996095 .2952474 .45996095 .3100586 .45450846 .32177735 .44360353 .3334961 .43269859 .33935548 .42008464 .33935548 .40576173 .33935548 .3930664 .3351237 .38232423 .32666017 .37353517 .31819663 .3647461 .30810548 .36035157 .29638673 .36035157 .2849935 .36035157 .2722168 .3658854 .25805665 .37695313 .24389649 .38802085 .23339844 .3935547 .2265625 .3935547 .22070313 .3935547 .21435547 .39032493 .20751953 .38386537 .1928711 .37061057 .17773438 .34879557 .16210938 .3184204V.10449219C.16210938 .07973226 .16520183 .06100464 .17138672 .048309328 .17561849 .03951009 .18310547 .03218587 .19384766 .02633667 .20458985 .02049764 .22005208 .017578125 .24023438 .017578125V0H.011230469V.017578125C.034016927 .017578125 .05094401 .021199545 .06201172 .028442383 .07014974 .03371175 .07584635 .042109174 .07910156 .053634645 .080729167 .059239706 .08154297 .07521566 .08154297 .1015625V.2734375C.08154297 .32552085 .08048502 .3565267 .07836914 .36645509 .07625326 .37638346 .07234701 .3836263 .06665039 .3881836 .060953779 .39274089 .0538737 .39501954 .045410158 .39501954 .03531901 .39501954 .023925782 .39257813 .011230469 .3876953L.0063476564 .40527345 .14160156 .45996095H.16210938Z"/>
<path id="font_21_33" d="M.1640625 .36390687C.19661458 .39674378 .21582031 .415624 .22167969 .4205475 .23632813 .43302918 .25211589 .4427185 .26904298 .44961549 .28597007 .45651246 .30273438 .45996095 .31933595 .45996095 .34733073 .45996095 .37141929 .4517517 .39160157 .43533326 .41178385 .4189148 .42529298 .395106 .4321289 .36390687 .46565757 .40331523 .49397788 .4291738 .51708987 .44148255 .54020187 .45380149 .56396487 .45996095 .5883789 .45996095 .6121419 .45996095 .6332194 .45387269 .6516113 .44169618 .67000326 .42952983 .6845703 .4096476 .6953125 .38204957 .70247396 .3632202 .7060547 .3336792 .7060547 .2934265V.1015625C.7060547 .073404949 .7081706 .054087324 .71240237 .04360962 .71565756 .03640747 .7216797 .03026835 .73046877 .02519226 .7392578 .02011617 .75358077 .017578125 .7734375 .017578125V0H.5527344V.017578125H.5620117C.58121749 .017578125 .5961914 .021341959 .6069336 .028869629 .6144206 .03410848 .6197917 .042460126 .6230469 .05392456 .62434896 .059488935 .625 .07536825 .625 .1015625V.2926941C.625 .32891847 .62060549 .35446678 .6118164 .369339 .5991211 .39004008 .57877609 .40039063 .55078127 .40039063 .5335286 .40039063 .51619467 .39609275 .4987793 .38749696 .48136393 .37890116 .46028648 .3629303 .43554688 .33958436L.4345703 .33422853 .43554688 .313385V.1015625C.43554688 .07078043 .43725587 .05162557 .44067384 .0440979 .4440918 .036570234 .45052085 .03026835 .45996095 .02519226 .46940104 .02011617 .4855143 .017578125 .5083008 .017578125V0H.28222657V.017578125C.30696617 .017578125 .3239746 .020523072 .33325196 .026412964 .3425293 .03231303 .34895835 .041152955 .35253907 .05293274 .35416667 .058507284 .35498048 .0747172 .35498048 .1015625V.29257203C.35498048 .32877604 .34960938 .354894 .3388672 .3709259 .32454429 .39187113 .30452476 .40234376 .2788086 .40234376 .26123048 .40234376 .24381511 .39760337 .2265625 .38812257 .19954427 .37373863 .17871094 .3575592 .1640625 .33958436V.1015625C.1640625 .07209269 .166097 .052937826 .17016602 .0440979 .17423503 .035257978 .18025716 .028625489 .18823242 .02420044 .19620769 .019785563 .21240235 .017578125 .2368164 .017578125V0H.015625V.017578125C.036132814 .017578125 .05045573 .019785563 .05859375 .02420044 .06673177 .028625489 .072916667 .035664876 .07714844 .045318605 .08138021 .054982503 .083496097 .07373047 .083496097 .1015625V.27148438C.083496097 .32063804 .08203125 .3523763 .07910156 .36669923 .076822917 .3774414 .07324219 .38484703 .068359378 .38891603 .06347656 .39298503 .056803388 .39501954 .048339845 .39501954 .03922526 .39501954 .028320313 .39257813 .015625 .3876953L.008300781 .40527345 .1430664 .45996095H.1640625V.36390687Z"/>
<path id="font_21_20" d="M.30859376 .018554688V0H.024902344V.018554688H.048339845C.075683597 .018554688 .09554037 .026489258 .107910159 .0423584 .115722659 .0527242 .119628909 .07766724 .119628909 .1171875V.5449219C.119628909 .5782878 .11751302 .60031637 .11328125 .6110077 .11002604 .61910507 .10335287 .6260681 .09326172 .631897 .078938808 .63966879 .063964847 .6435547 .048339845 .6435547H.024902344V.6621094H.30859376V.6435547H.28466798C.25764976 .6435547 .23795574 .6356201 .22558594 .619751 .21744792 .6093852 .2133789 .58444216 .2133789 .5449219V.1171875C.2133789 .08382162 .2154948 .06179301 .21972656 .051101686 .22298177 .043004354 .2298177 .03604126 .24023438 .030212403 .25423179 .022440592 .26904298 .018554688 .28466798 .018554688H.30859376Z"/>
<path id="font_21_42" d="M.0063476564 .44726563H.19384766V.4296875C.17659505 .42837525 .1652832 .42525736 .15991211 .42033387 .15454102 .41542054 .15185547 .40837608 .15185547 .39920045 .15185547 .38902793 .15462239 .37672935 .16015625 .3623047L.25585938 .105529788 .35205079 .31497193 .32666017 .3803711C.31884767 .4000956 .30859376 .41374208 .29589845 .42131043 .28873698 .42590843 .27539063 .42870078 .25585938 .4296875V.44726563H.46875V.4296875C.4453125 .42870078 .42871095 .42441813 .4189453 .4168396 .4124349 .41156007 .4091797 .40315248 .4091797 .39161683 .4091797 .3851064 .41048179 .37842814 .41308595 .37158204L.51464846 .114471439 .6088867 .3623047C.61539718 .38001506 .61865237 .39411418 .61865237 .40460206 .61865237 .4108378 .6154785 .41641236 .60913088 .42132569 .6027832 .42624919 .59033206 .42903648 .57177737 .4296875V.44726563H.7128906V.4296875C.6845703 .4254354 .663737 .4061432 .6503906 .3718109L.50097659-.013671875H.48095704L.36914063 .27145387 .23876953-.013671875H.22070313L.07714844 .3623047C.067708339 .38624064 .05843099 .40238954 .049316408 .41075135 .040201826 .41911317 .025878907 .4254252 .0063476564 .4296875V.44726563Z"/>
<path id="font_21_34" d="M.1616211 .36572267C.21402996 .4285482 .2639974 .45996095 .31152345 .45996095 .3359375 .45996095 .3569336 .45387269 .37451173 .44169618 .39208985 .42952983 .40608726 .40948487 .4165039 .38156129 .42366538 .3620809 .4272461 .33221437 .4272461 .29196168V.1015625C.4272461 .07307943 .42952476 .0537618 .43408204 .04360962 .43766276 .035420736 .44344078 .029032389 .45141603 .02444458 .45939128 .019866944 .4741211 .017578125 .49560548 .017578125V0H.27441407V.017578125H.2836914C.30452476 .017578125 .3190918 .020767212 .32739259 .027145386 .33569337 .033533735 .34147135 .042948408 .34472657 .055389406 .34602867 .060302736 .3466797 .075693767 .3466797 .1015625V.2843628C.3466797 .32499186 .34138999 .3544871 .33081056 .3728485 .3202311 .39120994 .30240885 .40039063 .27734376 .40039063 .23860677 .40039063 .20003255 .37923179 .1616211 .33691407V.1015625C.1616211 .07111613 .16341146 .052286786 .16699219 .045074464 .17154949 .035583497 .17781575 .028625489 .18579102 .02420044 .19376628 .019785563 .20996094 .017578125 .234375 .017578125V0H.013183594V.017578125H.022949219C.045735677 .017578125 .061116537 .023386637 .0690918 .035003663 .077067058 .04663086 .08105469 .06881714 .08105469 .1015625V.26660157C.08105469 .3203125 .079833988 .35302735 .07739258 .3647461 .07495117 .37646485 .07120768 .3844401 .06616211 .38867188 .061116537 .39290367 .05436198 .39501954 .045898439 .39501954 .036783857 .39501954 .025878907 .39257813 .013183594 .3876953L.005859375 .40527345 .140625 .45996095H.1616211V.36572267Z"/>
</defs>
<path transform="matrix(1,0,0,-1,0,131.19637)" d="M0 0H187.70856V131.19637H0Z" fill="#ffffff"/>
<path transform="matrix(1,0,0,-1,0,131.19637)" d="M27.075 17.886675H116.2398V121.56667H27.075Z" fill="#ffffff"/>
<g clip-path="url(#clip_0)">
<path transform="matrix(1,0,0,-1,0,131.19637)" stroke-width="1" stroke-linecap="square" stroke-linejoin="round" fill="none" stroke="#000000" d="M27.075 69.72668H116.2398"/>
</g>
<g clip-path="url(#clip_1)">
<path transform="matrix(1,0,0,-1,0,131.19637)" d="M30.97596 69.72668H36.54876V108.70451H30.97596Z" fill="#029e73"/>
</g>
<g clip-path="url(#clip_2)">
<path transform="matrix(1,0,0,-1,0,131.19637)" d="M48.80892 69.72668H54.38172V113.87824H48.80892Z" fill="#029e73"/>
</g>
<g clip-path="url(#clip_3)">
<path transform="matrix(1,0,0,-1,0,131.19637)" d="M66.64188 69.72668H72.21468V100.18011H66.64188Z" fill="#029e73"/>
</g>
<g clip-path="url(#clip_4)">
<path transform="matrix(1,0,0,-1,0,131.19637)" d="M84.47484 69.72668H90.04764V93.29706H84.47484Z" fill="#029e73"/>
</g>
<g clip-path="url(#clip_5)">
<path transform="matrix(1,0,0,-1,0,131.19637)" d="M102.3078 69.72668H107.8806V95.52735H102.3078Z" fill="#029e73"/>
</g>
<g clip-path="url(#clip_6)">
<path transform="matrix(1,0,0,-1,0,131.19637)" d="M30.97596 69.72668H36.54876V26.770462H30.97596Z" fill="#d55e00"/>
</g>
<g clip-path="url(#clip_7)">
<path transform="matrix(1,0,0,-1,0,131.19637)" d="M48.80892 69.72668H54.38172V26.655106H48.80892Z" fill="#d55e00"/>
</g>
<g clip-path="url(#clip_8)">
<path transform="matrix(1,0,0,-1,0,131.19637)" d="M66.64188 69.72668H72.21468V25.56343H66.64188Z" fill="#d55e00"/>
</g>
<g clip-path="url(#clip_9)">
<path transform="matrix(1,0,0,-1,0,131.19637)" d="M84.47484 69.72668H90.04764V46.670717H84.47484Z" fill="#d55e00"/>
</g>
<g clip-path="url(#clip_10)">
<path transform="matrix(1,0,0,-1,0,131.19637)" d="M102.3078 69.72668H107.8806V33.254899H102.3078Z" fill="#d55e00"/>
</g>
<g clip-path="url(#clip_11)">
<path transform="matrix(1,0,0,-1,0,131.19637)" d="M37.66332 69.72668H43.23612V87.76302H37.66332Z" fill="#0173b2"/>
</g>
<g clip-path="url(#clip_12)">
<path transform="matrix(1,0,0,-1,0,131.19637)" d="M55.49628 69.72668H61.06908V89.96249H55.49628Z" fill="#0173b2"/>
</g>
<g clip-path="url(#clip_13)">
<path transform="matrix(1,0,0,-1,0,131.19637)" d="M73.32924 69.72668H78.90204V86.987529H73.32924Z" fill="#0173b2"/>
</g>
<g clip-path="url(#clip_14)">
<path transform="matrix(1,0,0,-1,0,131.19637)" d="M91.1622 69.72668H96.735V90.0197H91.1622Z" fill="#0173b2"/>
</g>
<g clip-path="url(#clip_15)">
<path transform="matrix(1,0,0,-1,0,131.19637)" d="M108.99516 69.72668H114.56796V98.2779H108.99516Z" fill="#0173b2"/>
</g>
<g clip-path="url(#clip_16)">
<path transform="matrix(1,0,0,-1,0,131.19637)" d="M37.66332 69.72668H43.23612V68.509609H37.66332Z" fill="#de8f05"/>
</g>
<g clip-path="url(#clip_17)">
<path transform="matrix(1,0,0,-1,0,131.19637)" d="M55.49628 69.72668H61.06908V66.209728H55.49628Z" fill="#de8f05"/>
</g>
<g clip-path="url(#clip_18)">
<path transform="matrix(1,0,0,-1,0,131.19637)" d="M73.32924 69.72668H78.90204V73.78187H73.32924Z" fill="#de8f05"/>
</g>
<g clip-path="url(#clip_19)">
<path transform="matrix(1,0,0,-1,0,131.19637)" d="M91.1622 69.72668H96.735V74.90484H91.1622Z" fill="#de8f05"/>
</g>
<g clip-path="url(#clip_20)">
<path transform="matrix(1,0,0,-1,0,131.19637)" d="M108.99516 69.72668H114.56796V62.351385H108.99516Z" fill="#de8f05"/>
</g>
<path transform="matrix(1,0,0,-1,0,131.19637)" d="M38.2206 17.886675V14.386674"/>
<path transform="matrix(1,0,0,-1,0,131.19637)" stroke-width=".8" stroke-linecap="butt" stroke-linejoin="round" fill="none" stroke="#000000" d="M38.2206 17.886675V14.386674"/>
<path transform="matrix(1,0,0,-1,0,131.19637)" d="M56.05356 17.886675V14.386674"/>
<path transform="matrix(1,0,0,-1,0,131.19637)" stroke-width=".8" stroke-linecap="butt" stroke-linejoin="round" fill="none" stroke="#000000" d="M56.05356 17.886675V14.386674"/>
<path transform="matrix(1,0,0,-1,0,131.19637)" d="M73.88652 17.886675V14.386674"/>
<path transform="matrix(1,0,0,-1,0,131.19637)" stroke-width=".8" stroke-linecap="butt" stroke-linejoin="round" fill="none" stroke="#000000" d="M73.88652 17.886675V14.386674"/>
<path transform="matrix(1,0,0,-1,0,131.19637)" d="M91.71948 17.886675V14.386674"/>
<path transform="matrix(1,0,0,-1,0,131.19637)" stroke-width=".8" stroke-linecap="butt" stroke-linejoin="round" fill="none" stroke="#000000" d="M91.71948 17.886675V14.386674"/>
<path transform="matrix(1,0,0,-1,0,131.19637)" d="M109.55244 17.886675V14.386674"/>
<path transform="matrix(1,0,0,-1,0,131.19637)" stroke-width=".8" stroke-linecap="butt" stroke-linejoin="round" fill="none" stroke="#000000" d="M109.55244 17.886675V14.386674"/>
<path transform="matrix(1,0,0,-1,0,131.19637)" d="M27.075 17.886675H23.575"/>
<path transform="matrix(1,0,0,-1,0,131.19637)" stroke-width=".8" stroke-linecap="butt" stroke-linejoin="round" fill="none" stroke="#000000" d="M27.075 17.886675H23.575"/>
<use data-text="0" xlink:href="#font_21_9" transform="matrix(7,0,0,-7,19.249945,115.73938)"/>
<path transform="matrix(1,0,0,-1,0,131.19637)" d="M27.075 43.806676H23.575"/>
<path transform="matrix(1,0,0,-1,0,131.19637)" stroke-width=".8" stroke-linecap="butt" stroke-linejoin="round" fill="none" stroke="#000000" d="M27.075 43.806676H23.575"/>
<use data-text="2" xlink:href="#font_21_11" transform="matrix(7,0,0,-7,15.749944,89.81938)"/>
<use data-text="5" xlink:href="#font_21_14" transform="matrix(7,0,0,-7,19.249943,89.81938)"/>
<path transform="matrix(1,0,0,-1,0,131.19637)" d="M27.075 69.72668H23.575"/>
<path transform="matrix(1,0,0,-1,0,131.19637)" stroke-width=".8" stroke-linecap="butt" stroke-linejoin="round" fill="none" stroke="#000000" d="M27.075 69.72668H23.575"/>
<use data-text="5" xlink:href="#font_21_14" transform="matrix(7,0,0,-7,15.749944,63.899377)"/>
<use data-text="0" xlink:href="#font_21_9" transform="matrix(7,0,0,-7,19.249943,63.899377)"/>
<path transform="matrix(1,0,0,-1,0,131.19637)" d="M27.075 95.646678H23.575"/>
<path transform="matrix(1,0,0,-1,0,131.19637)" stroke-width=".8" stroke-linecap="butt" stroke-linejoin="round" fill="none" stroke="#000000" d="M27.075 95.646678H23.575"/>
<use data-text="7" xlink:href="#font_21_15" transform="matrix(7,0,0,-7,15.749944,37.979379)"/>
<use data-text="5" xlink:href="#font_21_14" transform="matrix(7,0,0,-7,19.249943,37.979379)"/>
<path transform="matrix(1,0,0,-1,0,131.19637)" d="M27.075 121.56667H23.575"/>
<path transform="matrix(1,0,0,-1,0,131.19637)" stroke-width=".8" stroke-linecap="butt" stroke-linejoin="round" fill="none" stroke="#000000" d="M27.075 121.56667H23.575"/>
<use data-text="1" xlink:href="#font_21_10" transform="matrix(7,0,0,-7,9.575,12.05938)"/>
<use data-text="0" xlink:href="#font_21_9" transform="matrix(7,0,0,-7,13.075,12.05938)"/>
<use data-text="0" xlink:href="#font_21_9" transform="matrix(7,0,0,-7,16.575,12.05938)"/>
<use data-text="F" xlink:href="#font_21_18" transform="matrix(0,-7,-7,-0,12.059375,95.11813)"/>
<use data-text="e" xlink:href="#font_21_29" transform="matrix(0,-7,-7,-0,12.059375,91.226139)"/>
<use data-text="e" xlink:href="#font_21_29" transform="matrix(0,-7,-7,-0,12.059375,88.11813)"/>
<use data-text="d" xlink:href="#font_21_28" transform="matrix(0,-7,-7,-0,12.059375,85.01013)"/>
<use data-text="b" xlink:href="#font_21_26" transform="matrix(0,-7,-7,-0,12.059375,81.51013)"/>
<use data-text="a" xlink:href="#font_21_25" transform="matrix(0,-7,-7,-0,12.059375,78.01013)"/>
<use data-text="c" xlink:href="#font_21_27" transform="matrix(0,-7,-7,-0,12.059375,74.90213)"/>
<use data-text="k" xlink:href="#font_21_31" transform="matrix(0,-7,-7,-0,12.059375,71.79413)"/>
<use data-text=" " xlink:href="#font_21_3" transform="matrix(0,-7,-7,-0,12.059375,68.29413)"/>
<use data-text="p" xlink:href="#font_21_36" transform="matrix(0,-7,-7,-0,12.059375,66.54413)"/>
<use data-text="o" xlink:href="#font_21_35" transform="matrix(0,-7,-7,-0,12.059375,63.044134)"/>
<use data-text="s" xlink:href="#font_21_38" transform="matrix(0,-7,-7,-0,12.059375,59.544134)"/>
<use data-text="i" xlink:href="#font_21_30" transform="matrix(0,-7,-7,-0,12.059375,56.821134)"/>
<use data-text="t" xlink:href="#font_21_39" transform="matrix(0,-7,-7,-0,12.059375,54.875135)"/>
<use data-text="i" xlink:href="#font_21_30" transform="matrix(0,-7,-7,-0,12.059375,52.929136)"/>
<use data-text="v" xlink:href="#font_21_41" transform="matrix(0,-7,-7,-0,12.059375,50.983137)"/>
<use data-text="i" xlink:href="#font_21_30" transform="matrix(0,-7,-7,-0,12.059375,47.483137)"/>
<use data-text="t" xlink:href="#font_21_39" transform="matrix(0,-7,-7,-0,12.059375,45.537137)"/>
<use data-text="y" xlink:href="#font_21_43" transform="matrix(0,-7,-7,-0,12.059375,43.591138)"/>
<use data-text=" " xlink:href="#font_21_3" transform="matrix(0,-7,-7,-0,12.059375,40.091138)"/>
<use data-text="(" xlink:href="#font_21_5" transform="matrix(0,-7,-7,-0,12.059375,38.341138)"/>
<use data-text="%" xlink:href="#font_21_4" transform="matrix(0,-7,-7,-0,12.059375,36.010137)"/>
<use data-text=")" xlink:href="#font_21_6" transform="matrix(0,-7,-7,-0,12.059375,30.179139)"/>
<g clip-path="url(#clip_22)">
<path transform="matrix(1,0,0,-1,0,131.19637)" stroke-width=".5" stroke-linecap="butt" stroke-linejoin="round" fill="none" stroke="#000000" d="M33.76236 107.27317V110.135868"/>
</g>
<g clip-path="url(#clip_23)">
<path transform="matrix(1,0,0,-1,0,131.19637)" d="M34.76236 107.27317H32.76236"/>
<path transform="matrix(1,0,0,-1,0,131.19637)" stroke-width=".5" stroke-linecap="butt" stroke-linejoin="round" fill="none" stroke="#000000" d="M34.76236 107.27317H32.76236"/>
</g>
<g clip-path="url(#clip_24)">
<path transform="matrix(1,0,0,-1,0,131.19637)" d="M34.76236 110.135868H32.76236"/>
<path transform="matrix(1,0,0,-1,0,131.19637)" stroke-width=".5" stroke-linecap="butt" stroke-linejoin="round" fill="none" stroke="#000000" d="M34.76236 110.135868H32.76236"/>
</g>
<g clip-path="url(#clip_25)">
<path transform="matrix(1,0,0,-1,0,131.19637)" stroke-width=".5" stroke-linecap="butt" stroke-linejoin="round" fill="none" stroke="#000000" d="M51.59532 112.71455V115.04194"/>
</g>
<g clip-path="url(#clip_26)">
<path transform="matrix(1,0,0,-1,0,131.19637)" d="M52.59532 112.71455H50.59532"/>
<path transform="matrix(1,0,0,-1,0,131.19637)" stroke-width=".5" stroke-linecap="butt" stroke-linejoin="round" fill="none" stroke="#000000" d="M52.59532 112.71455H50.59532"/>
</g>
<g clip-path="url(#clip_27)">
<path transform="matrix(1,0,0,-1,0,131.19637)" d="M52.59532 115.04194H50.59532"/>
<path transform="matrix(1,0,0,-1,0,131.19637)" stroke-width=".5" stroke-linecap="butt" stroke-linejoin="round" fill="none" stroke="#000000" d="M52.59532 115.04194H50.59532"/>
</g>
<g clip-path="url(#clip_28)">
<path transform="matrix(1,0,0,-1,0,131.19637)" stroke-width=".5" stroke-linecap="butt" stroke-linejoin="round" fill="none" stroke="#000000" d="M69.42828 98.445789V101.91443"/>
</g>
<g clip-path="url(#clip_29)">
<path transform="matrix(1,0,0,-1,0,131.19637)" d="M70.42828 98.445789H68.42828"/>
<path transform="matrix(1,0,0,-1,0,131.19637)" stroke-width=".5" stroke-linecap="butt" stroke-linejoin="round" fill="none" stroke="#000000" d="M70.42828 98.445789H68.42828"/>
</g>
<g clip-path="url(#clip_30)">
<path transform="matrix(1,0,0,-1,0,131.19637)" d="M70.42828 101.91443H68.42828"/>
<path transform="matrix(1,0,0,-1,0,131.19637)" stroke-width=".5" stroke-linecap="butt" stroke-linejoin="round" fill="none" stroke="#000000" d="M70.42828 101.91443H68.42828"/>
</g>
<g clip-path="url(#clip_31)">
<path transform="matrix(1,0,0,-1,0,131.19637)" stroke-width=".5" stroke-linecap="butt" stroke-linejoin="round" fill="none" stroke="#000000" d="M87.26124 91.33511V95.25901"/>
</g>
<g clip-path="url(#clip_32)">
<path transform="matrix(1,0,0,-1,0,131.19637)" d="M88.26124 91.33511H86.26124"/>
<path transform="matrix(1,0,0,-1,0,131.19637)" stroke-width=".5" stroke-linecap="butt" stroke-linejoin="round" fill="none" stroke="#000000" d="M88.26124 91.33511H86.26124"/>
</g>
<g clip-path="url(#clip_33)">
<path transform="matrix(1,0,0,-1,0,131.19637)" d="M88.26124 95.25901H86.26124"/>
<path transform="matrix(1,0,0,-1,0,131.19637)" stroke-width=".5" stroke-linecap="butt" stroke-linejoin="round" fill="none" stroke="#000000" d="M88.26124 95.25901H86.26124"/>
</g>
<g clip-path="url(#clip_34)">
<path transform="matrix(1,0,0,-1,0,131.19637)" stroke-width=".5" stroke-linecap="butt" stroke-linejoin="round" fill="none" stroke="#000000" d="M105.0942 93.643909V97.41079"/>
</g>
<g clip-path="url(#clip_35)">
<path transform="matrix(1,0,0,-1,0,131.19637)" d="M106.0942 93.643909H104.0942"/>
<path transform="matrix(1,0,0,-1,0,131.19637)" stroke-width=".5" stroke-linecap="butt" stroke-linejoin="round" fill="none" stroke="#000000" d="M106.0942 93.643909H104.0942"/>
</g>
<g clip-path="url(#clip_36)">
<path transform="matrix(1,0,0,-1,0,131.19637)" d="M106.0942 97.41079H104.0942"/>
<path transform="matrix(1,0,0,-1,0,131.19637)" stroke-width=".5" stroke-linecap="butt" stroke-linejoin="round" fill="none" stroke="#000000" d="M106.0942 97.41079H104.0942"/>
</g>
<g clip-path="url(#clip_37)">
<path transform="matrix(1,0,0,-1,0,131.19637)" stroke-width=".5" stroke-linecap="butt" stroke-linejoin="round" fill="none" stroke="#000000" d="M33.76236 25.508908V28.032019"/>
</g>
<g clip-path="url(#clip_38)">
<path transform="matrix(1,0,0,-1,0,131.19637)" d="M34.76236 25.508908H32.76236"/>
<path transform="matrix(1,0,0,-1,0,131.19637)" stroke-width=".5" stroke-linecap="butt" stroke-linejoin="round" fill="none" stroke="#000000" d="M34.76236 25.508908H32.76236"/>
</g>
<g clip-path="url(#clip_39)">
<path transform="matrix(1,0,0,-1,0,131.19637)" d="M34.76236 28.032019H32.76236"/>
<path transform="matrix(1,0,0,-1,0,131.19637)" stroke-width=".5" stroke-linecap="butt" stroke-linejoin="round" fill="none" stroke="#000000" d="M34.76236 28.032019H32.76236"/>
</g>
<g clip-path="url(#clip_40)">
<path transform="matrix(1,0,0,-1,0,131.19637)" stroke-width=".5" stroke-linecap="butt" stroke-linejoin="round" fill="none" stroke="#000000" d="M51.59532 25.534834V27.77538"/>
</g>
<g clip-path="url(#clip_41)">
<path transform="matrix(1,0,0,-1,0,131.19637)" d="M52.59532 25.534834H50.59532"/>
<path transform="matrix(1,0,0,-1,0,131.19637)" stroke-width=".5" stroke-linecap="butt" stroke-linejoin="round" fill="none" stroke="#000000" d="M52.59532 25.534834H50.59532"/>
</g>
<g clip-path="url(#clip_42)">
<path transform="matrix(1,0,0,-1,0,131.19637)" d="M52.59532 27.77538H50.59532"/>
<path transform="matrix(1,0,0,-1,0,131.19637)" stroke-width=".5" stroke-linecap="butt" stroke-linejoin="round" fill="none" stroke="#000000" d="M52.59532 27.77538H50.59532"/>
</g>
<g clip-path="url(#clip_43)">
<path transform="matrix(1,0,0,-1,0,131.19637)" stroke-width=".5" stroke-linecap="butt" stroke-linejoin="round" fill="none" stroke="#000000" d="M69.42828 24.425236V26.701628"/>
</g>
<g clip-path="url(#clip_44)">
<path transform="matrix(1,0,0,-1,0,131.19637)" d="M70.42828 24.425236H68.42828"/>
<path transform="matrix(1,0,0,-1,0,131.19637)" stroke-width=".5" stroke-linecap="butt" stroke-linejoin="round" fill="none" stroke="#000000" d="M70.42828 24.425236H68.42828"/>
</g>
<g clip-path="url(#clip_45)">
<path transform="matrix(1,0,0,-1,0,131.19637)" d="M70.42828 26.701628H68.42828"/>
<path transform="matrix(1,0,0,-1,0,131.19637)" stroke-width=".5" stroke-linecap="butt" stroke-linejoin="round" fill="none" stroke="#000000" d="M70.42828 26.701628H68.42828"/>
</g>
<g clip-path="url(#clip_46)">
<path transform="matrix(1,0,0,-1,0,131.19637)" stroke-width=".5" stroke-linecap="butt" stroke-linejoin="round" fill="none" stroke="#000000" d="M87.26124 44.85671V48.484727"/>
</g>
<g clip-path="url(#clip_47)">
<path transform="matrix(1,0,0,-1,0,131.19637)" d="M88.26124 44.85671H86.26124"/>
<path transform="matrix(1,0,0,-1,0,131.19637)" stroke-width=".5" stroke-linecap="butt" stroke-linejoin="round" fill="none" stroke="#000000" d="M88.26124 44.85671H86.26124"/>
</g>
<g clip-path="url(#clip_48)">
<path transform="matrix(1,0,0,-1,0,131.19637)" d="M88.26124 48.484727H86.26124"/>
<path transform="matrix(1,0,0,-1,0,131.19637)" stroke-width=".5" stroke-linecap="butt" stroke-linejoin="round" fill="none" stroke="#000000" d="M88.26124 48.484727H86.26124"/>
</g>
<g clip-path="url(#clip_49)">
<path transform="matrix(1,0,0,-1,0,131.19637)" stroke-width=".5" stroke-linecap="butt" stroke-linejoin="round" fill="none" stroke="#000000" d="M105.0942 31.634419V34.87538"/>
</g>
<g clip-path="url(#clip_50)">
<path transform="matrix(1,0,0,-1,0,131.19637)" d="M106.0942 31.634419H104.0942"/>
<path transform="matrix(1,0,0,-1,0,131.19637)" stroke-width=".5" stroke-linecap="butt" stroke-linejoin="round" fill="none" stroke="#000000" d="M106.0942 31.634419H104.0942"/>
</g>
<g clip-path="url(#clip_51)">
<path transform="matrix(1,0,0,-1,0,131.19637)" d="M106.0942 34.87538H104.0942"/>
<path transform="matrix(1,0,0,-1,0,131.19637)" stroke-width=".5" stroke-linecap="butt" stroke-linejoin="round" fill="none" stroke="#000000" d="M106.0942 34.87538H104.0942"/>
</g>
<g clip-path="url(#clip_52)">
<path transform="matrix(1,0,0,-1,0,131.19637)" stroke-width=".5" stroke-linecap="butt" stroke-linejoin="round" fill="none" stroke="#000000" d="M40.44972 85.7968V89.72925"/>
</g>
<g clip-path="url(#clip_53)">
<path transform="matrix(1,0,0,-1,0,131.19637)" d="M41.44972 85.7968H39.44972"/>
<path transform="matrix(1,0,0,-1,0,131.19637)" stroke-width=".5" stroke-linecap="butt" stroke-linejoin="round" fill="none" stroke="#000000" d="M41.44972 85.7968H39.44972"/>
</g>
<g clip-path="url(#clip_54)">
<path transform="matrix(1,0,0,-1,0,131.19637)" d="M41.44972 89.72925H39.44972"/>
<path transform="matrix(1,0,0,-1,0,131.19637)" stroke-width=".5" stroke-linecap="butt" stroke-linejoin="round" fill="none" stroke="#000000" d="M41.44972 89.72925H39.44972"/>
</g>
<g clip-path="url(#clip_55)">
<path transform="matrix(1,0,0,-1,0,131.19637)" stroke-width=".5" stroke-linecap="butt" stroke-linejoin="round" fill="none" stroke="#000000" d="M58.28268 87.968868V91.956119"/>
</g>
<g clip-path="url(#clip_56)">
<path transform="matrix(1,0,0,-1,0,131.19637)" d="M59.28268 87.968868H57.28268"/>
<path transform="matrix(1,0,0,-1,0,131.19637)" stroke-width=".5" stroke-linecap="butt" stroke-linejoin="round" fill="none" stroke="#000000" d="M59.28268 87.968868H57.28268"/>
</g>
<g clip-path="url(#clip_57)">
<path transform="matrix(1,0,0,-1,0,131.19637)" d="M59.28268 91.956119H57.28268"/>
<path transform="matrix(1,0,0,-1,0,131.19637)" stroke-width=".5" stroke-linecap="butt" stroke-linejoin="round" fill="none" stroke="#000000" d="M59.28268 91.956119H57.28268"/>
</g>
<g clip-path="url(#clip_58)">
<path transform="matrix(1,0,0,-1,0,131.19637)" stroke-width=".5" stroke-linecap="butt" stroke-linejoin="round" fill="none" stroke="#000000" d="M76.11564 84.98031V88.99474"/>
</g>
<g clip-path="url(#clip_59)">
<path transform="matrix(1,0,0,-1,0,131.19637)" d="M77.11564 84.98031H75.11564"/>
<path transform="matrix(1,0,0,-1,0,131.19637)" stroke-width=".5" stroke-linecap="butt" stroke-linejoin="round" fill="none" stroke="#000000" d="M77.11564 84.98031H75.11564"/>
</g>
<g clip-path="url(#clip_60)">
<path transform="matrix(1,0,0,-1,0,131.19637)" d="M77.11564 88.99474H75.11564"/>
<path transform="matrix(1,0,0,-1,0,131.19637)" stroke-width=".5" stroke-linecap="butt" stroke-linejoin="round" fill="none" stroke="#000000" d="M77.11564 88.99474H75.11564"/>
</g>
<g clip-path="url(#clip_61)">
<path transform="matrix(1,0,0,-1,0,131.19637)" stroke-width=".5" stroke-linecap="butt" stroke-linejoin="round" fill="none" stroke="#000000" d="M93.9486 88.01263V92.02677"/>
</g>
<g clip-path="url(#clip_62)">
<path transform="matrix(1,0,0,-1,0,131.19637)" d="M94.9486 88.01263H92.9486"/>
<path transform="matrix(1,0,0,-1,0,131.19637)" stroke-width=".5" stroke-linecap="butt" stroke-linejoin="round" fill="none" stroke="#000000" d="M94.9486 88.01263H92.9486"/>
</g>
<g clip-path="url(#clip_63)">
<path transform="matrix(1,0,0,-1,0,131.19637)" d="M94.9486 92.02677H92.9486"/>
<path transform="matrix(1,0,0,-1,0,131.19637)" stroke-width=".5" stroke-linecap="butt" stroke-linejoin="round" fill="none" stroke="#000000" d="M94.9486 92.02677H92.9486"/>
</g>
<g clip-path="url(#clip_64)">
<path transform="matrix(1,0,0,-1,0,131.19637)" stroke-width=".5" stroke-linecap="butt" stroke-linejoin="round" fill="none" stroke="#000000" d="M111.78156 96.481578V100.074237"/>
</g>
<g clip-path="url(#clip_65)">
<path transform="matrix(1,0,0,-1,0,131.19637)" d="M112.78156 96.481578H110.78156"/>
<path transform="matrix(1,0,0,-1,0,131.19637)" stroke-width=".5" stroke-linecap="butt" stroke-linejoin="round" fill="none" stroke="#000000" d="M112.78156 96.481578H110.78156"/>
</g>
<g clip-path="url(#clip_66)">
<path transform="matrix(1,0,0,-1,0,131.19637)" d="M112.78156 100.074237H110.78156"/>
<path transform="matrix(1,0,0,-1,0,131.19637)" stroke-width=".5" stroke-linecap="butt" stroke-linejoin="round" fill="none" stroke="#000000" d="M112.78156 100.074237H110.78156"/>
</g>
<g clip-path="url(#clip_67)">
<path transform="matrix(1,0,0,-1,0,131.19637)" stroke-width=".5" stroke-linecap="butt" stroke-linejoin="round" fill="none" stroke="#000000" d="M40.44972 66.399059V70.62015"/>
</g>
<g clip-path="url(#clip_68)">
<path transform="matrix(1,0,0,-1,0,131.19637)" d="M41.44972 66.399059H39.44972"/>
<path transform="matrix(1,0,0,-1,0,131.19637)" stroke-width=".5" stroke-linecap="butt" stroke-linejoin="round" fill="none" stroke="#000000" d="M41.44972 66.399059H39.44972"/>
</g>
<g clip-path="url(#clip_69)">
<path transform="matrix(1,0,0,-1,0,131.19637)" d="M41.44972 70.62015H39.44972"/>
<path transform="matrix(1,0,0,-1,0,131.19637)" stroke-width=".5" stroke-linecap="butt" stroke-linejoin="round" fill="none" stroke="#000000" d="M41.44972 70.62015H39.44972"/>
</g>
<g clip-path="url(#clip_70)">
<path transform="matrix(1,0,0,-1,0,131.19637)" stroke-width=".5" stroke-linecap="butt" stroke-linejoin="round" fill="none" stroke="#000000" d="M58.28268 64.13574V68.283718"/>
</g>
<g clip-path="url(#clip_71)">
<path transform="matrix(1,0,0,-1,0,131.19637)" d="M59.28268 64.13574H57.28268"/>
<path transform="matrix(1,0,0,-1,0,131.19637)" stroke-width=".5" stroke-linecap="butt" stroke-linejoin="round" fill="none" stroke="#000000" d="M59.28268 64.13574H57.28268"/>
</g>
<g clip-path="url(#clip_72)">
<path transform="matrix(1,0,0,-1,0,131.19637)" d="M59.28268 68.283718H57.28268"/>
<path transform="matrix(1,0,0,-1,0,131.19637)" stroke-width=".5" stroke-linecap="butt" stroke-linejoin="round" fill="none" stroke="#000000" d="M59.28268 68.283718H57.28268"/>
</g>
<g clip-path="url(#clip_73)">
<path transform="matrix(1,0,0,-1,0,131.19637)" stroke-width=".5" stroke-linecap="butt" stroke-linejoin="round" fill="none" stroke="#000000" d="M76.11564 71.65532V75.90842"/>
</g>
<g clip-path="url(#clip_74)">
<path transform="matrix(1,0,0,-1,0,131.19637)" d="M77.11564 71.65532H75.11564"/>
<path transform="matrix(1,0,0,-1,0,131.19637)" stroke-width=".5" stroke-linecap="butt" stroke-linejoin="round" fill="none" stroke="#000000" d="M77.11564 71.65532H75.11564"/>
</g>
<g clip-path="url(#clip_75)">
<path transform="matrix(1,0,0,-1,0,131.19637)" d="M77.11564 75.90842H75.11564"/>
<path transform="matrix(1,0,0,-1,0,131.19637)" stroke-width=".5" stroke-linecap="butt" stroke-linejoin="round" fill="none" stroke="#000000" d="M77.11564 75.90842H75.11564"/>
</g>
<g clip-path="url(#clip_76)">
<path transform="matrix(1,0,0,-1,0,131.19637)" stroke-width=".5" stroke-linecap="butt" stroke-linejoin="round" fill="none" stroke="#000000" d="M93.9486 72.763378V77.046298"/>
</g>
<g clip-path="url(#clip_77)">
<path transform="matrix(1,0,0,-1,0,131.19637)" d="M94.9486 72.763378H92.9486"/>
<path transform="matrix(1,0,0,-1,0,131.19637)" stroke-width=".5" stroke-linecap="butt" stroke-linejoin="round" fill="none" stroke="#000000" d="M94.9486 72.763378H92.9486"/>
</g>
<g clip-path="url(#clip_78)">
<path transform="matrix(1,0,0,-1,0,131.19637)" d="M94.9486 77.046298H92.9486"/>
<path transform="matrix(1,0,0,-1,0,131.19637)" stroke-width=".5" stroke-linecap="butt" stroke-linejoin="round" fill="none" stroke="#000000" d="M94.9486 77.046298H92.9486"/>
</g>
<g clip-path="url(#clip_79)">
<path transform="matrix(1,0,0,-1,0,131.19637)" stroke-width=".5" stroke-linecap="butt" stroke-linejoin="round" fill="none" stroke="#000000" d="M111.78156 60.310857V64.391918"/>
</g>
<g clip-path="url(#clip_80)">
<path transform="matrix(1,0,0,-1,0,131.19637)" d="M112.78156 60.310857H110.78156"/>
<path transform="matrix(1,0,0,-1,0,131.19637)" stroke-width=".5" stroke-linecap="butt" stroke-linejoin="round" fill="none" stroke="#000000" d="M112.78156 60.310857H110.78156"/>
</g>
<g clip-path="url(#clip_81)">
<path transform="matrix(1,0,0,-1,0,131.19637)" d="M112.78156 64.391918H110.78156"/>
<path transform="matrix(1,0,0,-1,0,131.19637)" stroke-width=".5" stroke-linecap="butt" stroke-linejoin="round" fill="none" stroke="#000000" d="M112.78156 64.391918H110.78156"/>
</g>
<path transform="matrix(1,0,0,-1,0,131.19637)" stroke-width=".8" stroke-linecap="square" stroke-miterlimit="10" stroke-linejoin="miter" fill="none" stroke="#000000" d="M27.075 17.886675V121.56667"/>
<path transform="matrix(1,0,0,-1,0,131.19637)" stroke-width=".8" stroke-linecap="square" stroke-miterlimit="10" stroke-linejoin="miter" fill="none" stroke="#000000" d="M116.2398 17.886675V121.56667"/>
<path transform="matrix(1,0,0,-1,0,131.19637)" stroke-width=".8" stroke-linecap="square" stroke-miterlimit="10" stroke-linejoin="miter" fill="none" stroke="#000000" d="M27.075 17.886675H116.2398"/>
<path transform="matrix(1,0,0,-1,0,131.19637)" stroke-width=".8" stroke-linecap="square" stroke-miterlimit="10" stroke-linejoin="miter" fill="none" stroke="#000000" d="M27.075 121.56667H116.2398"/>
<use data-text="C" xlink:href="#font_21_17" transform="matrix(6,0,0,-6,14.735924,122.71512)"/>
<use data-text="l" xlink:href="#font_21_32" transform="matrix(6,0,0,-6,18.737925,122.71512)"/>
<use data-text="a" xlink:href="#font_21_25" transform="matrix(6,0,0,-6,20.405924,122.71512)"/>
<use data-text="u" xlink:href="#font_21_40" transform="matrix(6,0,0,-6,23.069924,122.71512)"/>
<use data-text="d" xlink:href="#font_21_28" transform="matrix(6,0,0,-6,26.069924,122.71512)"/>
<use data-text="e" xlink:href="#font_21_29" transform="matrix(6,0,0,-6,29.069924,122.71512)"/>
<use data-text=" " xlink:href="#font_21_3" transform="matrix(6,0,0,-6,31.733925,122.71512)"/>
<use data-text="1" xlink:href="#font_21_10" transform="matrix(6,0,0,-6,33.233926,122.71512)"/>
<use data-text="." xlink:href="#font_21_8" transform="matrix(6,0,0,-6,36.233926,122.71512)"/>
<use data-text="3" xlink:href="#font_21_12" transform="matrix(6,0,0,-6,37.733926,122.71512)"/>
<use data-text="C" xlink:href="#font_21_17" transform="matrix(6,0,0,-6,42.397893,122.71512)"/>
<use data-text="l" xlink:href="#font_21_32" transform="matrix(6,0,0,-6,46.39989,122.71512)"/>
<use data-text="a" xlink:href="#font_21_25" transform="matrix(6,0,0,-6,48.067895,122.71512)"/>
<use data-text="u" xlink:href="#font_21_40" transform="matrix(6,0,0,-6,50.73189,122.71512)"/>
<use data-text="d" xlink:href="#font_21_28" transform="matrix(6,0,0,-6,53.73189,122.71512)"/>
<use data-text="e" xlink:href="#font_21_29" transform="matrix(6,0,0,-6,56.73189,122.71512)"/>
<use data-text=" " xlink:href="#font_21_3" transform="matrix(6,0,0,-6,59.395895,122.71512)"/>
<use data-text="2" xlink:href="#font_21_11" transform="matrix(6,0,0,-6,60.895895,122.71512)"/>
<use data-text="G" xlink:href="#font_21_19" transform="matrix(6,0,0,-6,65.720859,122.71512)"/>
<use data-text="P" xlink:href="#font_21_23" transform="matrix(6,0,0,-6,70.05286,122.71512)"/>
<use data-text="T" xlink:href="#font_21_24" transform="matrix(6,0,0,-6,73.388858,122.71512)"/>
<use data-text="-" xlink:href="#font_21_7" transform="matrix(6,0,0,-6,76.50798,122.71512)"/>
<use data-text="3" xlink:href="#font_21_12" transform="matrix(6,0,0,-6,78.50598,122.71512)"/>
<use data-text="." xlink:href="#font_21_8" transform="matrix(6,0,0,-6,81.50598,122.71512)"/>
<use data-text="5" xlink:href="#font_21_14" transform="matrix(6,0,0,-6,83.00598,122.71512)"/>
<use data-text="G" xlink:href="#font_21_19" transform="matrix(6,0,0,-6,87.81002,122.71512)"/>
<use data-text="P" xlink:href="#font_21_23" transform="matrix(6,0,0,-6,92.14202,122.71512)"/>
<use data-text="T" xlink:href="#font_21_24" transform="matrix(6,0,0,-6,95.47802,122.71512)"/>
<use data-text="-" xlink:href="#font_21_7" transform="matrix(6,0,0,-6,98.597148,122.71512)"/>
<use data-text="4" xlink:href="#font_21_13" transform="matrix(6,0,0,-6,100.595149,122.71512)"/>
<use data-text="L" xlink:href="#font_21_21" transform="matrix(6,0,0,-6,106.116847,122.71512)"/>
<use data-text="L" xlink:href="#font_21_21" transform="matrix(6,0,0,-6,109.782848,122.71512)"/>
<use data-text="a" xlink:href="#font_21_25" transform="matrix(6,0,0,-6,113.448848,122.71512)"/>
<use data-text="M" xlink:href="#font_21_22" transform="matrix(6,0,0,-6,116.11285,122.71512)"/>
<use data-text="A" xlink:href="#font_21_16" transform="matrix(6,0,0,-6,121.446849,122.71512)"/>
<use data-text=" " xlink:href="#font_21_3" transform="matrix(6,0,0,-6,125.45072,122.71512)"/>
<use data-text="2" xlink:href="#font_21_11" transform="matrix(6,0,0,-6,126.95072,122.71512)"/>
<g>
<path transform="matrix(1,0,0,-1,0,131.19637)" d="M121.1398 47.306676H179.10855C180.04189 47.306676 180.50855 47.773344 180.50855 48.706674V97.4973C180.50855 98.43063 180.04189 98.8973 179.10855 98.8973H121.1398C120.20647 98.8973 119.7398 98.43063 119.7398 97.4973V48.706674C119.7398 47.773344 120.20647 47.306676 121.1398 47.306676Z" fill="#ffffff" fill-opacity=".8"/>
<path transform="matrix(1,0,0,-1,0,131.19637)" stroke-width="1" stroke-linecap="butt" stroke-miterlimit="10" stroke-linejoin="miter" fill="none" stroke="#cccccc" stroke-opacity=".8" d="M121.1398 47.306676H179.10855C180.04189 47.306676 180.50855 47.773344 180.50855 48.706674V97.4973C180.50855 98.43063 180.04189 98.8973 179.10855 98.8973H121.1398C120.20647 98.8973 119.7398 98.43063 119.7398 97.4973V48.706674C119.7398 47.773344 120.20647 47.306676 121.1398 47.306676Z"/>
</g>
<use data-text="P" xlink:href="#font_21_23" transform="matrix(7,0,0,-7,138.4523,39.958444)"/>
<use data-text="r" xlink:href="#font_21_37" transform="matrix(7,0,0,-7,142.3443,39.958444)"/>
<use data-text="o" xlink:href="#font_21_35" transform="matrix(7,0,0,-7,144.67531,39.958444)"/>
<use data-text="m" xlink:href="#font_21_33" transform="matrix(7,0,0,-7,148.17531,39.958444)"/>
<use data-text="p" xlink:href="#font_21_36" transform="matrix(7,0,0,-7,153.6213,39.958444)"/>
<use data-text="t" xlink:href="#font_21_39" transform="matrix(7,0,0,-7,157.1213,39.958444)"/>
<use data-text="s" xlink:href="#font_21_38" transform="matrix(7,0,0,-7,159.0673,39.958444)"/>
<path transform="matrix(1,0,0,-1,0,131.19637)" d="M122.5398 81.33792H136.5398V86.23792H122.5398Z" fill="#029e73"/>
<use data-text="I" xlink:href="#font_21_20" transform="matrix(7,0,0,-7,137.2398,49.858446)"/>
<use data-text=" " xlink:href="#font_21_3" transform="matrix(7,0,0,-7,139.5708,49.858446)"/>
<use data-text="r" xlink:href="#font_21_37" transform="matrix(7,0,0,-7,141.3208,49.858446)"/>
<use data-text="e" xlink:href="#font_21_29" transform="matrix(7,0,0,-7,143.65181,49.858446)"/>
<use data-text="a" xlink:href="#font_21_25" transform="matrix(7,0,0,-7,146.75981,49.858446)"/>
<use data-text="l" xlink:href="#font_21_32" transform="matrix(7,0,0,-7,149.86782,49.858446)"/>
<use data-text="l" xlink:href="#font_21_32" transform="matrix(7,0,0,-7,151.81381,49.858446)"/>
<use data-text="y" xlink:href="#font_21_43" transform="matrix(7,0,0,-7,153.75981,49.858446)"/>
<use data-text=" " xlink:href="#font_21_3" transform="matrix(7,0,0,-7,157.25981,49.858446)"/>
<use data-text="l" xlink:href="#font_21_32" transform="matrix(7,0,0,-7,159.00981,49.858446)"/>
<use data-text="i" xlink:href="#font_21_30" transform="matrix(7,0,0,-7,160.95581,49.858446)"/>
<use data-text="k" xlink:href="#font_21_31" transform="matrix(7,0,0,-7,162.90181,49.858446)"/>
<use data-text="e" xlink:href="#font_21_29" transform="matrix(7,0,0,-7,166.40181,49.858446)"/>
<path transform="matrix(1,0,0,-1,0,131.19637)" d="M122.5398 71.4223H136.5398V76.322299H122.5398Z" fill="#d55e00"/>
<use data-text="I" xlink:href="#font_21_20" transform="matrix(7,0,0,-7,137.2398,59.774065)"/>
<use data-text=" " xlink:href="#font_21_3" transform="matrix(7,0,0,-7,139.5708,59.774065)"/>
<use data-text="r" xlink:href="#font_21_37" transform="matrix(7,0,0,-7,141.3208,59.774065)"/>
<use data-text="e" xlink:href="#font_21_29" transform="matrix(7,0,0,-7,143.65181,59.774065)"/>
<use data-text="a" xlink:href="#font_21_25" transform="matrix(7,0,0,-7,146.75981,59.774065)"/>
<use data-text="l" xlink:href="#font_21_32" transform="matrix(7,0,0,-7,149.86782,59.774065)"/>
<use data-text="l" xlink:href="#font_21_32" transform="matrix(7,0,0,-7,151.81381,59.774065)"/>
<use data-text="y" xlink:href="#font_21_43" transform="matrix(7,0,0,-7,153.75981,59.774065)"/>
<use data-text=" " xlink:href="#font_21_3" transform="matrix(7,0,0,-7,157.25981,59.774065)"/>
<use data-text="d" xlink:href="#font_21_28" transform="matrix(7,0,0,-7,159.00981,59.774065)"/>
<use data-text="i" xlink:href="#font_21_30" transform="matrix(7,0,0,-7,162.50981,59.774065)"/>
<use data-text="s" xlink:href="#font_21_38" transform="matrix(7,0,0,-7,164.45581,59.774065)"/>
<use data-text="l" xlink:href="#font_21_32" transform="matrix(7,0,0,-7,167.1788,59.774065)"/>
<use data-text="i" xlink:href="#font_21_30" transform="matrix(7,0,0,-7,169.12482,59.774065)"/>
<use data-text="k" xlink:href="#font_21_31" transform="matrix(7,0,0,-7,171.0708,59.774065)"/>
<use data-text="e" xlink:href="#font_21_29" transform="matrix(7,0,0,-7,174.5708,59.774065)"/>
<path transform="matrix(1,0,0,-1,0,131.19637)" d="M122.5398 61.506677H136.5398V66.40668H122.5398Z" fill="#0173b2"/>
<use data-text="I" xlink:href="#font_21_20" transform="matrix(7,0,0,-7,137.2398,69.68969)"/>
<use data-text=" " xlink:href="#font_21_3" transform="matrix(7,0,0,-7,139.5708,69.68969)"/>
<use data-text="w" xlink:href="#font_21_42" transform="matrix(7,0,0,-7,141.3208,69.68969)"/>
<use data-text="r" xlink:href="#font_21_37" transform="matrix(7,0,0,-7,146.3748,69.68969)"/>
<use data-text="o" xlink:href="#font_21_35" transform="matrix(7,0,0,-7,148.70581,69.68969)"/>
<use data-text="t" xlink:href="#font_21_39" transform="matrix(7,0,0,-7,152.20581,69.68969)"/>
<use data-text="e" xlink:href="#font_21_29" transform="matrix(7,0,0,-7,154.15181,69.68969)"/>
<path transform="matrix(1,0,0,-1,0,131.19637)" d="M122.5398 51.606676H136.5398V56.506677H122.5398Z" fill="#de8f05"/>
<use data-text="I" xlink:href="#font_21_20" transform="matrix(7,0,0,-7,137.2398,79.58969)"/>
<use data-text=" " xlink:href="#font_21_3" transform="matrix(7,0,0,-7,139.5708,79.58969)"/>
<use data-text="d" xlink:href="#font_21_28" transform="matrix(7,0,0,-7,141.3208,79.58969)"/>
<use data-text="i" xlink:href="#font_21_30" transform="matrix(7,0,0,-7,144.8208,79.58969)"/>
<use data-text="d" xlink:href="#font_21_28" transform="matrix(7,0,0,-7,146.76682,79.58969)"/>
<use data-text=" " xlink:href="#font_21_3" transform="matrix(7,0,0,-7,150.26682,79.58969)"/>
<use data-text="n" xlink:href="#font_21_34" transform="matrix(7,0,0,-7,152.01682,79.58969)"/>
<use data-text="o" xlink:href="#font_21_35" transform="matrix(7,0,0,-7,155.51682,79.58969)"/>
<use data-text="t" xlink:href="#font_21_39" transform="matrix(7,0,0,-7,159.01682,79.58969)"/>
<use data-text=" " xlink:href="#font_21_3" transform="matrix(7,0,0,-7,160.96282,79.58969)"/>
<use data-text="w" xlink:href="#font_21_42" transform="matrix(7,0,0,-7,162.71282,79.58969)"/>
<use data-text="r" xlink:href="#font_21_37" transform="matrix(7,0,0,-7,167.76682,79.58969)"/>
<use data-text="i" xlink:href="#font_21_30" transform="matrix(7,0,0,-7,170.09781,79.58969)"/>
<use data-text="t" xlink:href="#font_21_39" transform="matrix(7,0,0,-7,172.04381,79.58969)"/>
<use data-text="e" xlink:href="#font_21_29" transform="matrix(7,0,0,-7,173.9898,79.58969)"/>
</svg>
